<?xml version="1.0" encoding="UTF-8"?>
<svg version="1.1" xmlns="http://www.w3.org/2000/svg" width="512" height="512">
<path d="M0 0 C1.10330343 -0.00779995 2.20660686 -0.01559991 3.34334373 -0.02363622 C7.04775561 -0.04361174 10.75114654 -0.0277687 14.45556641 -0.01205444 C17.10828665 -0.01882809 19.76093607 -0.0275485 22.41363525 -0.03860474 C28.87509345 -0.06084358 35.33626133 -0.05603325 41.79773092 -0.04154153 C47.04883298 -0.03025176 52.29985365 -0.02871723 57.55096436 -0.03416061 C58.29819083 -0.03492678 59.0454173 -0.03569294 59.81528699 -0.03648233 C61.33324069 -0.03808095 62.85119437 -0.03970201 64.36914802 -0.04134528 C78.60464023 -0.05560467 92.83997149 -0.03920715 107.07543731 -0.01234345 C119.29142033 0.00999555 131.5071658 0.00611548 143.72314453 -0.01693726 C157.90751622 -0.04369198 172.09174682 -0.05423135 186.27614021 -0.03887594 C187.78852461 -0.03728318 189.30090902 -0.03571133 190.81329346 -0.03416061 C191.92949037 -0.03300355 191.92949037 -0.03300355 193.06823671 -0.03182311 C198.3133275 -0.02750511 203.55832883 -0.03479478 208.80340576 -0.04655838 C215.1950618 -0.06057834 221.5864108 -0.05679442 227.97803164 -0.03015466 C231.23956665 -0.01700909 234.50048357 -0.01456484 237.76203156 -0.02840042 C241.29662166 -0.04201438 244.82976079 -0.02498761 248.36425781 0 C249.39683905 -0.01115361 250.42942028 -0.02230722 251.49329185 -0.03379881 C256.21744976 0.03121891 258.4526276 0.08698742 262.32066631 2.99228382 C264.57896494 6.19828841 264.79009949 7.90496026 264.74975586 11.80215454 C264.7493782 13.02304276 264.74900055 14.24393097 264.74861145 15.5018158 C264.72280502 16.81030991 264.6969986 18.11880402 264.67041016 19.46694946 C264.66107703 20.82742511 264.65396327 22.18791764 264.64897156 23.54841614 C264.62994021 27.11792939 264.58087571 30.68641475 264.52545166 34.25552368 C264.47417394 37.90202938 264.45143952 41.54870226 264.42626953 45.19546509 C264.37275104 52.34236831 264.28748708 59.48857592 264.18212891 66.63491821 C264.86007004 66.62381516 265.53801117 66.6127121 266.23649597 66.60127258 C273.29286525 66.49065034 280.34898821 66.41523833 287.40600586 66.36026001 C290.03957118 66.33511664 292.67306672 66.30099737 295.30639648 66.25772095 C299.09197199 66.19706611 302.87662488 66.16870551 306.66259766 66.14663696 C308.42847481 66.10792732 308.42847481 66.10792732 310.23002625 66.06843567 C311.33078995 66.06805801 312.43155365 66.06768036 313.56567383 66.06729126 C314.53163986 66.0561882 315.4976059 66.04508514 316.49284363 66.03364563 C320.33329183 66.89229615 321.71777006 68.60765836 324.18212891 71.63491821 C324.80312139 74.95537502 324.80312139 74.95537502 324.79736805 78.82507038 C324.80313727 79.54164492 324.80890649 80.25821947 324.81485054 80.99650839 C324.82811593 83.40458098 324.80563377 85.81099144 324.78340149 88.21897888 C324.7855814 89.9598391 324.78995844 91.70069772 324.79634732 93.44154757 C324.8075461 98.23052286 324.78750232 103.01894075 324.76245701 107.807845 C324.7408977 112.97004119 324.74816924 118.13220505 324.75196838 123.29443359 C324.75459224 132.24004904 324.73888291 141.18548238 324.71077919 150.13105202 C324.67017226 163.06486932 324.65712484 175.99859841 324.65083923 188.93247255 C324.63989165 209.91593862 324.60660483 230.8993076 324.55932617 251.88272095 C324.51344261 272.26813267 324.4780448 292.65351803 324.45678711 313.03897095 C324.45547349 314.29518247 324.45415987 315.55139399 324.45280645 316.84567253 C324.44628134 323.14761319 324.43996278 329.44955403 324.43374693 335.751495 C324.38189948 388.04603652 324.29382153 440.34047263 324.18212891 492.63491821 C325.21619873 492.60873413 326.25026855 492.58255005 327.31567383 492.55557251 C331.1639225 492.46485399 335.0120773 492.40759162 338.86108398 492.36026001 C340.52465729 492.33516474 342.18812087 492.30108025 343.85131836 492.25772095 C346.24702044 492.19684361 348.64126142 492.16866053 351.03759766 492.14663696 C352.14726143 492.10792732 352.14726143 492.10792732 353.27934265 492.06843567 C357.27732033 492.06627981 358.98785333 492.47948177 362.1496582 495.00918579 C364.35527222 497.85860066 364.86259718 499.08494859 364.80712891 502.63491821 C364.82001953 503.45991821 364.83291016 504.28491821 364.84619141 505.13491821 C363.8672588 508.82031155 362.13255472 510.25539958 359.18212891 512.63491821 C356.33330961 513.12693758 354.0835831 513.30912647 351.24069214 513.26412392 C350.44288527 513.27139112 349.6450784 513.27865832 348.82309556 513.28614575 C346.13874916 513.3044531 343.45582132 513.28701439 340.77148438 513.26983643 C338.83206894 513.27559536 336.89265895 513.28353493 334.95326042 513.29347265 C329.61532276 513.31440047 324.27783041 513.30400375 318.93989086 513.28854156 C313.18656032 513.27725627 307.43330784 513.29467673 301.67999268 513.30844116 C290.40588067 513.33070826 279.13193482 513.32585688 267.85781622 513.31137796 C258.69749427 513.30009938 249.53721898 513.29854883 240.37689209 513.30399704 C239.07459337 513.3047632 237.77229465 513.30552937 236.43053234 513.30631875 C233.78517865 513.30791733 231.13982497 513.3095384 228.49447131 513.31118171 C204.38000523 513.32504243 180.26562663 513.31065305 156.15117475 513.28446872 C134.13084524 513.26074011 112.11066028 513.26286323 90.09033203 513.28677368 C65.35843405 513.31353859 40.62661934 513.324076 15.89470863 513.30871236 C13.25892768 513.30711957 10.62314671 513.30554772 7.98736572 513.30399704 C6.6904124 513.30322566 5.39345907 513.30245428 4.05720413 513.30165953 C-5.09520475 513.29733713 -14.24756243 513.30464072 -23.39996338 513.31639481 C-34.54928505 513.33039831 -45.69843065 513.32666507 -56.84773207 513.29999109 C-62.53948378 513.28682405 -68.23094162 513.28174978 -73.92269135 513.29823685 C-79.1288163 513.31308947 -84.33437383 513.30502564 -89.540447 513.27834909 C-91.42798606 513.2727442 -93.31557264 513.27564923 -95.20308137 513.28772803 C-97.76155516 513.30284999 -100.31806454 513.28742805 -102.87643433 513.26412392 C-103.9856514 513.28168266 -103.9856514 513.28168266 -105.11727691 513.29959613 C-109.03315627 513.2278978 -110.68359216 512.74321418 -113.77270699 510.25184286 C-115.99599767 507.40699331 -116.49843892 506.19125933 -116.44287109 502.63491821 C-116.45576172 501.80991821 -116.46865234 500.98491821 -116.48193359 500.13491821 C-115.50040571 496.43975442 -113.78655704 495.0101112 -110.81787109 492.63491821 C-107.89400818 492.19591393 -105.57746164 492.04532924 -102.67333984 492.14663696 C-101.90355301 492.1537117 -101.13376617 492.16078644 -100.34065247 492.16807556 C-97.89454806 492.19594896 -95.45077726 492.25866685 -93.00537109 492.32241821 C-91.34199282 492.34751054 -89.67857847 492.37032208 -88.01513672 492.39077759 C-83.94848952 492.44575151 -79.88357521 492.53196895 -75.81787109 492.63491821 C-75.8197697 491.74599359 -75.8216683 490.85706896 -75.82362443 489.94120723 C-75.93544206 437.29133529 -76.02126704 384.64147592 -76.07319774 331.99150907 C-76.0794515 325.67399616 -76.08592309 319.3564835 -76.0925293 313.03897095 C-76.09384085 311.78123368 -76.0951524 310.52349641 -76.0965037 309.2276459 C-76.11827802 288.84526173 -76.15771072 268.46294785 -76.20363507 248.08060542 C-76.2503433 227.17648627 -76.27815456 206.27240401 -76.28831357 185.36823481 C-76.29518441 172.46250992 -76.31690853 159.5569837 -76.35745343 146.65131994 C-76.38382224 137.80917207 -76.3918854 128.96712736 -76.38537798 120.124943 C-76.38216596 115.01849025 -76.38719274 109.91238539 -76.41389847 104.80599403 C-76.43815231 100.13446255 -76.43951008 95.46351431 -76.42236557 90.79195651 C-76.42024531 89.09873112 -76.42665458 87.40546997 -76.44228701 85.71231542 C-76.46226302 83.41584749 -76.45159908 81.12150353 -76.43311024 78.82507038 C-76.43500884 77.54807091 -76.43690744 76.27107144 -76.43886358 74.95537502 C-75.6516845 70.74631583 -74.12822933 69.26368316 -70.81787109 66.63491821 C-68.12858582 66.03364563 -68.12858582 66.03364563 -65.20141602 66.06729126 C-64.10065231 66.06766891 -62.99988861 66.06804657 -61.86576843 66.06843567 C-60.688517 66.0942421 -59.51126556 66.12004852 -58.29833984 66.14663696 C-56.47777824 66.15724907 -56.47777824 66.15724907 -54.62043762 66.16807556 C-50.74811898 66.19603932 -46.87725193 66.2587873 -43.00537109 66.32241821 C-40.37843886 66.34749826 -37.75148395 66.37031193 -35.12451172 66.39077759 C-28.68847049 66.44587291 -22.2532745 66.52952166 -15.81787109 66.63491821 C-15.82897415 65.88180862 -15.84007721 65.12869904 -15.85151672 64.35276794 C-15.95180856 57.24651368 -16.027881 50.14050558 -16.07693195 43.03374195 C-16.10299804 39.38022929 -16.13833886 35.72730261 -16.19506836 32.0741272 C-16.24949875 28.54682874 -16.27931412 25.02009294 -16.29225731 21.49240685 C-16.30595748 19.49535419 -16.34497403 17.49852715 -16.38435364 15.5018158 C-16.38473129 14.28092758 -16.38510895 13.06003937 -16.38549805 11.80215454 C-16.3966011 10.72959915 -16.40770416 9.65704376 -16.41914368 8.55198669 C-14.58635277 -0.33978178 -7.47568085 -0.08074989 0 0 Z M4.18212891 20.63491821 C4.18212891 35.81491821 4.18212891 50.99491821 4.18212891 66.63491821 C83.38212891 66.63491821 162.58212891 66.63491821 244.18212891 66.63491821 C244.18212891 51.45491821 244.18212891 36.27491821 244.18212891 20.63491821 C164.98212891 20.63491821 85.78212891 20.63491821 4.18212891 20.63491821 Z M-55.81787109 86.63491821 C-55.81787109 220.61491821 -55.81787109 354.59491821 -55.81787109 492.63491821 C-16.21787109 492.63491821 23.38212891 492.63491821 64.18212891 492.63491821 C64.24271484 483.9350354 64.30330078 475.23515259 64.36572266 466.27163696 C64.41134692 460.07180647 64.45758555 453.87198295 64.50471401 447.67216396 C64.5657337 439.6341312 64.625288 431.59609617 64.67944336 423.55801392 C64.72231533 417.19536947 64.76860094 410.83276065 64.81900746 404.47017127 C64.84558412 401.10039729 64.87043658 397.73063026 64.89120293 394.36081505 C64.91522719 390.60146521 64.94528466 386.84220964 64.97680664 383.08291626 C64.9825621 381.96226273 64.98831757 380.84160919 64.99424744 379.68699646 C65.00403625 378.66475983 65.01382507 377.64252319 65.02391052 376.58930969 C65.03036307 375.69977946 65.03681562 374.81024923 65.04346371 373.89376354 C65.18212891 371.63491821 65.18212891 371.63491821 66.18212891 368.63491821 C69.02096509 367.68863948 70.75817187 367.50931262 73.69873047 367.50793457 C74.62407593 367.50511475 75.54942139 367.50229492 76.50280762 367.49938965 C77.51588989 367.50141388 78.52897217 367.50343811 79.57275391 367.50552368 C80.64126587 367.50377136 81.70977783 367.50201904 82.81066895 367.50021362 C86.351172 367.4958037 89.89162532 367.49873011 93.43212891 367.50210571 C95.88688161 367.50143243 98.34163425 367.5004622 100.79638672 367.49920654 C105.94450515 367.49773073 111.09260624 367.4998804 116.24072266 367.50454712 C122.84866719 367.51024432 129.45657111 367.5069647 136.06451416 367.50097466 C141.13444323 367.49736591 146.20436263 367.49850908 151.27429199 367.50110245 C153.71122238 367.50177084 156.14815364 367.50094632 158.58508301 367.49862289 C161.98724707 367.49609126 165.3893448 367.49994427 168.79150391 367.50552368 C169.80458618 367.50349945 170.81766846 367.50147522 171.8614502 367.49938965 C173.24946838 367.50361938 173.24946838 367.50361938 174.66552734 367.50793457 C175.87230133 367.50850011 175.87230133 367.50850011 177.10345459 367.50907707 C179.18212891 367.63491821 179.18212891 367.63491821 182.18212891 368.63491821 C183.16386437 371.58012461 183.3180675 373.51788097 183.34034729 376.58930969 C183.35503052 378.12266464 183.35503052 378.12266464 183.37001038 379.68699646 C183.37576584 380.80764999 183.3815213 381.92830353 183.38745117 383.08291626 C183.39735077 384.26353638 183.40725037 385.44415649 183.41744995 386.66055298 C183.44364125 389.89786266 183.46550188 393.13516713 183.48545194 396.37252021 C183.50732043 399.75581499 183.5347049 403.13906497 183.56150818 406.52232361 C183.61142339 412.92894767 183.65636656 419.33559662 183.69953054 425.74226934 C183.75375638 433.75144098 183.81460623 441.7605605 183.87548828 449.76968384 C183.98407328 464.05805527 184.08262426 478.34647425 184.18212891 492.63491821 C223.78212891 492.63491821 263.38212891 492.63491821 304.18212891 492.63491821 C304.18212891 358.65491821 304.18212891 224.67491821 304.18212891 86.63491821 C185.38212891 86.63491821 66.58212891 86.63491821 -55.81787109 86.63491821 Z M84.18212891 386.63491821 C84.18212891 421.61491821 84.18212891 456.59491821 84.18212891 492.63491821 C94.08212891 492.63491821 103.98212891 492.63491821 114.18212891 492.63491821 C114.24271484 489.7100354 114.30330078 486.78515259 114.36572266 483.77163696 C114.42751356 480.94193947 114.49090065 478.11228193 114.55444336 475.28262329 C114.59778132 473.31456043 114.63945723 471.34646024 114.67944336 469.37832642 C114.73717335 466.55098212 114.80086007 463.7238255 114.86572266 460.89663696 C114.88243515 460.01529587 114.89914764 459.13395477 114.91636658 458.22590637 C114.9363118 457.40528214 114.95625702 456.5846579 114.97680664 455.73916626 C114.99235092 455.0174675 115.0078952 454.29576874 115.02391052 453.55220032 C115.18212891 451.63491821 115.18212891 451.63491821 116.18212891 448.63491821 C119.13039653 447.65216234 121.10865394 447.50077097 124.18212891 447.50991821 C125.04837891 447.50734009 125.91462891 447.50476196 126.80712891 447.50210571 C129.18212891 447.63491821 129.18212891 447.63491821 132.18212891 448.63491821 C133.07655355 451.31819215 133.32794577 452.9764156 133.38745117 455.73916626 C133.417369 456.97010262 133.417369 456.97010262 133.44789124 458.22590637 C133.46460373 459.10724747 133.48131622 459.98858856 133.49853516 460.89663696 C133.51931625 461.80242996 133.54009735 462.70822296 133.56150818 463.64146423 C133.62689449 466.53503838 133.68583795 469.42870328 133.74462891 472.32241821 C133.78782451 474.28401614 133.83143913 476.24560489 133.87548828 478.20718384 C133.98335333 483.01633695 134.08250798 487.82555894 134.18212891 492.63491821 C144.08212891 492.63491821 153.98212891 492.63491821 164.18212891 492.63491821 C164.18212891 457.65491821 164.18212891 422.67491821 164.18212891 386.63491821 C137.78212891 386.63491821 111.38212891 386.63491821 84.18212891 386.63491821 Z " fill="#000000" transform="translate(131.81787109375,-0.634918212890625)"/>
<path d="M0 0 C0.67544861 -0.0087616 1.35089722 -0.01752319 2.04681396 -0.02655029 C4.26885132 -0.04847103 6.48888166 -0.03402082 8.7109375 -0.01708984 C10.26123434 -0.02046017 11.81152859 -0.02531459 13.36181641 -0.03158569 C16.6067019 -0.03894698 19.85089795 -0.0282766 23.09570312 -0.00488281 C27.2489408 0.02360583 31.40056301 0.00719768 35.55374146 -0.02274513 C38.75378527 -0.04083902 41.95344793 -0.03505079 45.15350342 -0.02210617 C46.68447055 -0.01877787 48.21547262 -0.02283903 49.74639893 -0.03450394 C51.8891524 -0.04724882 54.02931399 -0.02779228 56.171875 0 C57.3892334 0.00397797 58.6065918 0.00795593 59.86083984 0.01205444 C64.09978207 0.84656611 65.55540159 2.17616235 68.0859375 5.64697266 C68.72085571 8.87207031 68.72085571 8.87207031 68.73291016 12.56103516 C68.74167175 13.23648376 68.75043335 13.91193237 68.75946045 14.60784912 C68.78138119 16.82988647 68.76693097 19.04991682 68.75 21.27197266 C68.75337032 22.82226949 68.75822474 24.37256375 68.76449585 25.92285156 C68.77185713 29.16773706 68.76118676 32.41193311 68.73779297 35.65673828 C68.70930432 39.80997596 68.72571248 43.96159817 68.75565529 48.11477661 C68.77374918 51.31482043 68.76796095 54.51448309 68.75501633 57.71453857 C68.75168803 59.2455057 68.75574919 60.77650777 68.76741409 62.30743408 C68.78015897 64.45018755 68.76070243 66.59034915 68.73291016 68.73291016 C68.72694321 70.55894775 68.72694321 70.55894775 68.72085571 72.421875 C67.88634404 76.66081723 66.5567478 78.11643675 63.0859375 80.64697266 C59.86083984 81.28189087 59.86083984 81.28189087 56.171875 81.29394531 C55.15870209 81.30708771 55.15870209 81.30708771 54.12506104 81.32049561 C51.90302368 81.34241634 49.68299334 81.32796613 47.4609375 81.31103516 C45.91064066 81.31440548 44.36034641 81.3192599 42.81005859 81.32553101 C39.5651731 81.33289229 36.32097705 81.32222192 33.07617188 81.29882812 C28.9229342 81.27033948 24.77131199 81.28674763 20.61813354 81.31669044 C17.41808973 81.33478433 14.21842707 81.3289961 11.01837158 81.31605148 C9.48740445 81.31272318 7.95640238 81.31678434 6.42547607 81.32844925 C4.2827226 81.34119413 2.14256101 81.32173759 0 81.29394531 C-1.2173584 81.28996735 -2.4347168 81.28598938 -3.68896484 81.28189087 C-7.92790707 80.4473792 -9.38352659 79.11778296 -11.9140625 75.64697266 C-12.54898071 72.421875 -12.54898071 72.421875 -12.56103516 68.73291016 C-12.57417755 67.71973724 -12.57417755 67.71973724 -12.58758545 66.68609619 C-12.60950619 64.46405884 -12.59505597 62.2440285 -12.578125 60.02197266 C-12.58149532 58.47167582 -12.58634974 56.92138157 -12.59262085 55.37109375 C-12.59998213 52.12620825 -12.58931176 48.8820122 -12.56591797 45.63720703 C-12.53742932 41.48396935 -12.55383748 37.33234714 -12.58378029 33.1791687 C-12.60187418 29.97912489 -12.59608595 26.77946222 -12.58314133 23.57940674 C-12.57981303 22.04843961 -12.58387419 20.51743754 -12.59553909 18.98651123 C-12.60828397 16.84375776 -12.58882743 14.70359617 -12.56103516 12.56103516 C-12.55705719 11.34367676 -12.55307922 10.12631836 -12.54898071 8.87207031 C-11.14639961 1.74759203 -6.74592375 0.02204368 0 0 Z M8.0859375 20.64697266 C8.0859375 33.84697266 8.0859375 47.04697266 8.0859375 60.64697266 C21.2859375 60.64697266 34.4859375 60.64697266 48.0859375 60.64697266 C48.0859375 47.44697266 48.0859375 34.24697266 48.0859375 20.64697266 C34.8859375 20.64697266 21.6859375 20.64697266 8.0859375 20.64697266 Z " fill="#000000" transform="translate(347.9140625,365.35302734375)"/>
<path d="M0 0 C0.67544861 -0.0087616 1.35089722 -0.01752319 2.04681396 -0.02655029 C4.26885132 -0.04847103 6.48888166 -0.03402082 8.7109375 -0.01708984 C10.26123434 -0.02046017 11.81152859 -0.02531459 13.36181641 -0.03158569 C16.6067019 -0.03894698 19.85089795 -0.0282766 23.09570312 -0.00488281 C27.2489408 0.02360583 31.40056301 0.00719768 35.55374146 -0.02274513 C38.75378527 -0.04083902 41.95344793 -0.03505079 45.15350342 -0.02210617 C46.68447055 -0.01877787 48.21547262 -0.02283903 49.74639893 -0.03450394 C51.8891524 -0.04724882 54.02931399 -0.02779228 56.171875 0 C57.3892334 0.00397797 58.6065918 0.00795593 59.86083984 0.01205444 C64.09978207 0.84656611 65.55540159 2.17616235 68.0859375 5.64697266 C68.72085571 8.87207031 68.72085571 8.87207031 68.73291016 12.56103516 C68.74167175 13.23648376 68.75043335 13.91193237 68.75946045 14.60784912 C68.78138119 16.82988647 68.76693097 19.04991682 68.75 21.27197266 C68.75337032 22.82226949 68.75822474 24.37256375 68.76449585 25.92285156 C68.77185713 29.16773706 68.76118676 32.41193311 68.73779297 35.65673828 C68.70930432 39.80997596 68.72571248 43.96159817 68.75565529 48.11477661 C68.77374918 51.31482043 68.76796095 54.51448309 68.75501633 57.71453857 C68.75168803 59.2455057 68.75574919 60.77650777 68.76741409 62.30743408 C68.78015897 64.45018755 68.76070243 66.59034915 68.73291016 68.73291016 C68.72694321 70.55894775 68.72694321 70.55894775 68.72085571 72.421875 C67.88634404 76.66081723 66.5567478 78.11643675 63.0859375 80.64697266 C59.86083984 81.28189087 59.86083984 81.28189087 56.171875 81.29394531 C55.15870209 81.30708771 55.15870209 81.30708771 54.12506104 81.32049561 C51.90302368 81.34241634 49.68299334 81.32796613 47.4609375 81.31103516 C45.91064066 81.31440548 44.36034641 81.3192599 42.81005859 81.32553101 C39.5651731 81.33289229 36.32097705 81.32222192 33.07617188 81.29882812 C28.9229342 81.27033948 24.77131199 81.28674763 20.61813354 81.31669044 C17.41808973 81.33478433 14.21842707 81.3289961 11.01837158 81.31605148 C9.48740445 81.31272318 7.95640238 81.31678434 6.42547607 81.32844925 C4.2827226 81.34119413 2.14256101 81.32173759 0 81.29394531 C-1.2173584 81.28996735 -2.4347168 81.28598938 -3.68896484 81.28189087 C-7.92790707 80.4473792 -9.38352659 79.11778296 -11.9140625 75.64697266 C-12.54898071 72.421875 -12.54898071 72.421875 -12.56103516 68.73291016 C-12.57417755 67.71973724 -12.57417755 67.71973724 -12.58758545 66.68609619 C-12.60950619 64.46405884 -12.59505597 62.2440285 -12.578125 60.02197266 C-12.58149532 58.47167582 -12.58634974 56.92138157 -12.59262085 55.37109375 C-12.59998213 52.12620825 -12.58931176 48.8820122 -12.56591797 45.63720703 C-12.53742932 41.48396935 -12.55383748 37.33234714 -12.58378029 33.1791687 C-12.60187418 29.97912489 -12.59608595 26.77946222 -12.58314133 23.57940674 C-12.57981303 22.04843961 -12.58387419 20.51743754 -12.59553909 18.98651123 C-12.60828397 16.84375776 -12.58882743 14.70359617 -12.56103516 12.56103516 C-12.55705719 11.34367676 -12.55307922 10.12631836 -12.54898071 8.87207031 C-11.14639961 1.74759203 -6.74592375 0.02204368 0 0 Z M8.0859375 20.64697266 C8.0859375 33.84697266 8.0859375 47.04697266 8.0859375 60.64697266 C21.2859375 60.64697266 34.4859375 60.64697266 48.0859375 60.64697266 C48.0859375 47.44697266 48.0859375 34.24697266 48.0859375 20.64697266 C34.8859375 20.64697266 21.6859375 20.64697266 8.0859375 20.64697266 Z " fill="#000000" transform="translate(107.9140625,365.35302734375)"/>
<path d="M0 0 C0.67544861 -0.0087616 1.35089722 -0.01752319 2.04681396 -0.02655029 C4.26885132 -0.04847103 6.48888166 -0.03402082 8.7109375 -0.01708984 C10.26123434 -0.02046017 11.81152859 -0.02531459 13.36181641 -0.03158569 C16.6067019 -0.03894698 19.85089795 -0.0282766 23.09570312 -0.00488281 C27.2489408 0.02360583 31.40056301 0.00719768 35.55374146 -0.02274513 C38.75378527 -0.04083902 41.95344793 -0.03505079 45.15350342 -0.02210617 C46.68447055 -0.01877787 48.21547262 -0.02283903 49.74639893 -0.03450394 C51.8891524 -0.04724882 54.02931399 -0.02779228 56.171875 0 C57.3892334 0.00397797 58.6065918 0.00795593 59.86083984 0.01205444 C64.09978207 0.84656611 65.55540159 2.17616235 68.0859375 5.64697266 C68.72085571 8.87207031 68.72085571 8.87207031 68.73291016 12.56103516 C68.74167175 13.23648376 68.75043335 13.91193237 68.75946045 14.60784912 C68.78138119 16.82988647 68.76693097 19.04991682 68.75 21.27197266 C68.75337032 22.82226949 68.75822474 24.37256375 68.76449585 25.92285156 C68.77185713 29.16773706 68.76118676 32.41193311 68.73779297 35.65673828 C68.70930432 39.80997596 68.72571248 43.96159817 68.75565529 48.11477661 C68.77374918 51.31482043 68.76796095 54.51448309 68.75501633 57.71453857 C68.75168803 59.2455057 68.75574919 60.77650777 68.76741409 62.30743408 C68.78015897 64.45018755 68.76070243 66.59034915 68.73291016 68.73291016 C68.72694321 70.55894775 68.72694321 70.55894775 68.72085571 72.421875 C67.88634404 76.66081723 66.5567478 78.11643675 63.0859375 80.64697266 C59.86083984 81.28189087 59.86083984 81.28189087 56.171875 81.29394531 C55.15870209 81.30708771 55.15870209 81.30708771 54.12506104 81.32049561 C51.90302368 81.34241634 49.68299334 81.32796613 47.4609375 81.31103516 C45.91064066 81.31440548 44.36034641 81.3192599 42.81005859 81.32553101 C39.5651731 81.33289229 36.32097705 81.32222192 33.07617188 81.29882812 C28.9229342 81.27033948 24.77131199 81.28674763 20.61813354 81.31669044 C17.41808973 81.33478433 14.21842707 81.3289961 11.01837158 81.31605148 C9.48740445 81.31272318 7.95640238 81.31678434 6.42547607 81.32844925 C4.2827226 81.34119413 2.14256101 81.32173759 0 81.29394531 C-1.2173584 81.28996735 -2.4347168 81.28598938 -3.68896484 81.28189087 C-7.92790707 80.4473792 -9.38352659 79.11778296 -11.9140625 75.64697266 C-12.54898071 72.421875 -12.54898071 72.421875 -12.56103516 68.73291016 C-12.57417755 67.71973724 -12.57417755 67.71973724 -12.58758545 66.68609619 C-12.60950619 64.46405884 -12.59505597 62.2440285 -12.578125 60.02197266 C-12.58149532 58.47167582 -12.58634974 56.92138157 -12.59262085 55.37109375 C-12.59998213 52.12620825 -12.58931176 48.8820122 -12.56591797 45.63720703 C-12.53742932 41.48396935 -12.55383748 37.33234714 -12.58378029 33.1791687 C-12.60187418 29.97912489 -12.59608595 26.77946222 -12.58314133 23.57940674 C-12.57981303 22.04843961 -12.58387419 20.51743754 -12.59553909 18.98651123 C-12.60828397 16.84375776 -12.58882743 14.70359617 -12.56103516 12.56103516 C-12.55705719 11.34367676 -12.55307922 10.12631836 -12.54898071 8.87207031 C-11.14639961 1.74759203 -6.74592375 0.02204368 0 0 Z M8.0859375 20.64697266 C8.0859375 33.84697266 8.0859375 47.04697266 8.0859375 60.64697266 C21.2859375 60.64697266 34.4859375 60.64697266 48.0859375 60.64697266 C48.0859375 47.44697266 48.0859375 34.24697266 48.0859375 20.64697266 C34.8859375 20.64697266 21.6859375 20.64697266 8.0859375 20.64697266 Z " fill="#000000" transform="translate(347.9140625,245.35302734375)"/>
<path d="M0 0 C0.67544861 -0.0087616 1.35089722 -0.01752319 2.04681396 -0.02655029 C4.26885132 -0.04847103 6.48888166 -0.03402082 8.7109375 -0.01708984 C10.26123434 -0.02046017 11.81152859 -0.02531459 13.36181641 -0.03158569 C16.6067019 -0.03894698 19.85089795 -0.0282766 23.09570312 -0.00488281 C27.2489408 0.02360583 31.40056301 0.00719768 35.55374146 -0.02274513 C38.75378527 -0.04083902 41.95344793 -0.03505079 45.15350342 -0.02210617 C46.68447055 -0.01877787 48.21547262 -0.02283903 49.74639893 -0.03450394 C51.8891524 -0.04724882 54.02931399 -0.02779228 56.171875 0 C57.3892334 0.00397797 58.6065918 0.00795593 59.86083984 0.01205444 C64.09978207 0.84656611 65.55540159 2.17616235 68.0859375 5.64697266 C68.72085571 8.87207031 68.72085571 8.87207031 68.73291016 12.56103516 C68.74167175 13.23648376 68.75043335 13.91193237 68.75946045 14.60784912 C68.78138119 16.82988647 68.76693097 19.04991682 68.75 21.27197266 C68.75337032 22.82226949 68.75822474 24.37256375 68.76449585 25.92285156 C68.77185713 29.16773706 68.76118676 32.41193311 68.73779297 35.65673828 C68.70930432 39.80997596 68.72571248 43.96159817 68.75565529 48.11477661 C68.77374918 51.31482043 68.76796095 54.51448309 68.75501633 57.71453857 C68.75168803 59.2455057 68.75574919 60.77650777 68.76741409 62.30743408 C68.78015897 64.45018755 68.76070243 66.59034915 68.73291016 68.73291016 C68.72694321 70.55894775 68.72694321 70.55894775 68.72085571 72.421875 C67.88634404 76.66081723 66.5567478 78.11643675 63.0859375 80.64697266 C59.86083984 81.28189087 59.86083984 81.28189087 56.171875 81.29394531 C55.15870209 81.30708771 55.15870209 81.30708771 54.12506104 81.32049561 C51.90302368 81.34241634 49.68299334 81.32796613 47.4609375 81.31103516 C45.91064066 81.31440548 44.36034641 81.3192599 42.81005859 81.32553101 C39.5651731 81.33289229 36.32097705 81.32222192 33.07617188 81.29882812 C28.9229342 81.27033948 24.77131199 81.28674763 20.61813354 81.31669044 C17.41808973 81.33478433 14.21842707 81.3289961 11.01837158 81.31605148 C9.48740445 81.31272318 7.95640238 81.31678434 6.42547607 81.32844925 C4.2827226 81.34119413 2.14256101 81.32173759 0 81.29394531 C-1.2173584 81.28996735 -2.4347168 81.28598938 -3.68896484 81.28189087 C-7.92790707 80.4473792 -9.38352659 79.11778296 -11.9140625 75.64697266 C-12.54898071 72.421875 -12.54898071 72.421875 -12.56103516 68.73291016 C-12.57417755 67.71973724 -12.57417755 67.71973724 -12.58758545 66.68609619 C-12.60950619 64.46405884 -12.59505597 62.2440285 -12.578125 60.02197266 C-12.58149532 58.47167582 -12.58634974 56.92138157 -12.59262085 55.37109375 C-12.59998213 52.12620825 -12.58931176 48.8820122 -12.56591797 45.63720703 C-12.53742932 41.48396935 -12.55383748 37.33234714 -12.58378029 33.1791687 C-12.60187418 29.97912489 -12.59608595 26.77946222 -12.58314133 23.57940674 C-12.57981303 22.04843961 -12.58387419 20.51743754 -12.59553909 18.98651123 C-12.60828397 16.84375776 -12.58882743 14.70359617 -12.56103516 12.56103516 C-12.55705719 11.34367676 -12.55307922 10.12631836 -12.54898071 8.87207031 C-11.14639961 1.74759203 -6.74592375 0.02204368 0 0 Z M8.0859375 20.64697266 C8.0859375 33.84697266 8.0859375 47.04697266 8.0859375 60.64697266 C21.2859375 60.64697266 34.4859375 60.64697266 48.0859375 60.64697266 C48.0859375 47.44697266 48.0859375 34.24697266 48.0859375 20.64697266 C34.8859375 20.64697266 21.6859375 20.64697266 8.0859375 20.64697266 Z " fill="#000000" transform="translate(227.9140625,245.35302734375)"/>
<path d="M0 0 C0.67544861 -0.0087616 1.35089722 -0.01752319 2.04681396 -0.02655029 C4.26885132 -0.04847103 6.48888166 -0.03402082 8.7109375 -0.01708984 C10.26123434 -0.02046017 11.81152859 -0.02531459 13.36181641 -0.03158569 C16.6067019 -0.03894698 19.85089795 -0.0282766 23.09570312 -0.00488281 C27.2489408 0.02360583 31.40056301 0.00719768 35.55374146 -0.02274513 C38.75378527 -0.04083902 41.95344793 -0.03505079 45.15350342 -0.02210617 C46.68447055 -0.01877787 48.21547262 -0.02283903 49.74639893 -0.03450394 C51.8891524 -0.04724882 54.02931399 -0.02779228 56.171875 0 C57.3892334 0.00397797 58.6065918 0.00795593 59.86083984 0.01205444 C64.09978207 0.84656611 65.55540159 2.17616235 68.0859375 5.64697266 C68.72085571 8.87207031 68.72085571 8.87207031 68.73291016 12.56103516 C68.74167175 13.23648376 68.75043335 13.91193237 68.75946045 14.60784912 C68.78138119 16.82988647 68.76693097 19.04991682 68.75 21.27197266 C68.75337032 22.82226949 68.75822474 24.37256375 68.76449585 25.92285156 C68.77185713 29.16773706 68.76118676 32.41193311 68.73779297 35.65673828 C68.70930432 39.80997596 68.72571248 43.96159817 68.75565529 48.11477661 C68.77374918 51.31482043 68.76796095 54.51448309 68.75501633 57.71453857 C68.75168803 59.2455057 68.75574919 60.77650777 68.76741409 62.30743408 C68.78015897 64.45018755 68.76070243 66.59034915 68.73291016 68.73291016 C68.72694321 70.55894775 68.72694321 70.55894775 68.72085571 72.421875 C67.88634404 76.66081723 66.5567478 78.11643675 63.0859375 80.64697266 C59.86083984 81.28189087 59.86083984 81.28189087 56.171875 81.29394531 C55.15870209 81.30708771 55.15870209 81.30708771 54.12506104 81.32049561 C51.90302368 81.34241634 49.68299334 81.32796613 47.4609375 81.31103516 C45.91064066 81.31440548 44.36034641 81.3192599 42.81005859 81.32553101 C39.5651731 81.33289229 36.32097705 81.32222192 33.07617188 81.29882812 C28.9229342 81.27033948 24.77131199 81.28674763 20.61813354 81.31669044 C17.41808973 81.33478433 14.21842707 81.3289961 11.01837158 81.31605148 C9.48740445 81.31272318 7.95640238 81.31678434 6.42547607 81.32844925 C4.2827226 81.34119413 2.14256101 81.32173759 0 81.29394531 C-1.2173584 81.28996735 -2.4347168 81.28598938 -3.68896484 81.28189087 C-7.92790707 80.4473792 -9.38352659 79.11778296 -11.9140625 75.64697266 C-12.54898071 72.421875 -12.54898071 72.421875 -12.56103516 68.73291016 C-12.57417755 67.71973724 -12.57417755 67.71973724 -12.58758545 66.68609619 C-12.60950619 64.46405884 -12.59505597 62.2440285 -12.578125 60.02197266 C-12.58149532 58.47167582 -12.58634974 56.92138157 -12.59262085 55.37109375 C-12.59998213 52.12620825 -12.58931176 48.8820122 -12.56591797 45.63720703 C-12.53742932 41.48396935 -12.55383748 37.33234714 -12.58378029 33.1791687 C-12.60187418 29.97912489 -12.59608595 26.77946222 -12.58314133 23.57940674 C-12.57981303 22.04843961 -12.58387419 20.51743754 -12.59553909 18.98651123 C-12.60828397 16.84375776 -12.58882743 14.70359617 -12.56103516 12.56103516 C-12.55705719 11.34367676 -12.55307922 10.12631836 -12.54898071 8.87207031 C-11.14639961 1.74759203 -6.74592375 0.02204368 0 0 Z M8.0859375 20.64697266 C8.0859375 33.84697266 8.0859375 47.04697266 8.0859375 60.64697266 C21.2859375 60.64697266 34.4859375 60.64697266 48.0859375 60.64697266 C48.0859375 47.44697266 48.0859375 34.24697266 48.0859375 20.64697266 C34.8859375 20.64697266 21.6859375 20.64697266 8.0859375 20.64697266 Z " fill="#000000" transform="translate(107.9140625,245.35302734375)"/>
<path d="M0 0 C0.67544861 -0.0087616 1.35089722 -0.01752319 2.04681396 -0.02655029 C4.26885132 -0.04847103 6.48888166 -0.03402082 8.7109375 -0.01708984 C10.26123434 -0.02046017 11.81152859 -0.02531459 13.36181641 -0.03158569 C16.6067019 -0.03894698 19.85089795 -0.0282766 23.09570312 -0.00488281 C27.2489408 0.02360583 31.40056301 0.00719768 35.55374146 -0.02274513 C38.75378527 -0.04083902 41.95344793 -0.03505079 45.15350342 -0.02210617 C46.68447055 -0.01877787 48.21547262 -0.02283903 49.74639893 -0.03450394 C51.8891524 -0.04724882 54.02931399 -0.02779228 56.171875 0 C57.3892334 0.00397797 58.6065918 0.00795593 59.86083984 0.01205444 C64.09978207 0.84656611 65.55540159 2.17616235 68.0859375 5.64697266 C68.72085571 8.87207031 68.72085571 8.87207031 68.73291016 12.56103516 C68.74167175 13.23648376 68.75043335 13.91193237 68.75946045 14.60784912 C68.78138119 16.82988647 68.76693097 19.04991682 68.75 21.27197266 C68.75337032 22.82226949 68.75822474 24.37256375 68.76449585 25.92285156 C68.77185713 29.16773706 68.76118676 32.41193311 68.73779297 35.65673828 C68.70930432 39.80997596 68.72571248 43.96159817 68.75565529 48.11477661 C68.77374918 51.31482043 68.76796095 54.51448309 68.75501633 57.71453857 C68.75168803 59.2455057 68.75574919 60.77650777 68.76741409 62.30743408 C68.78015897 64.45018755 68.76070243 66.59034915 68.73291016 68.73291016 C68.72694321 70.55894775 68.72694321 70.55894775 68.72085571 72.421875 C67.88634404 76.66081723 66.5567478 78.11643675 63.0859375 80.64697266 C59.86083984 81.28189087 59.86083984 81.28189087 56.171875 81.29394531 C55.15870209 81.30708771 55.15870209 81.30708771 54.12506104 81.32049561 C51.90302368 81.34241634 49.68299334 81.32796613 47.4609375 81.31103516 C45.91064066 81.31440548 44.36034641 81.3192599 42.81005859 81.32553101 C39.5651731 81.33289229 36.32097705 81.32222192 33.07617188 81.29882812 C28.9229342 81.27033948 24.77131199 81.28674763 20.61813354 81.31669044 C17.41808973 81.33478433 14.21842707 81.3289961 11.01837158 81.31605148 C9.48740445 81.31272318 7.95640238 81.31678434 6.42547607 81.32844925 C4.2827226 81.34119413 2.14256101 81.32173759 0 81.29394531 C-1.2173584 81.28996735 -2.4347168 81.28598938 -3.68896484 81.28189087 C-7.92790707 80.4473792 -9.38352659 79.11778296 -11.9140625 75.64697266 C-12.54898071 72.421875 -12.54898071 72.421875 -12.56103516 68.73291016 C-12.57417755 67.71973724 -12.57417755 67.71973724 -12.58758545 66.68609619 C-12.60950619 64.46405884 -12.59505597 62.2440285 -12.578125 60.02197266 C-12.58149532 58.47167582 -12.58634974 56.92138157 -12.59262085 55.37109375 C-12.59998213 52.12620825 -12.58931176 48.8820122 -12.56591797 45.63720703 C-12.53742932 41.48396935 -12.55383748 37.33234714 -12.58378029 33.1791687 C-12.60187418 29.97912489 -12.59608595 26.77946222 -12.58314133 23.57940674 C-12.57981303 22.04843961 -12.58387419 20.51743754 -12.59553909 18.98651123 C-12.60828397 16.84375776 -12.58882743 14.70359617 -12.56103516 12.56103516 C-12.55705719 11.34367676 -12.55307922 10.12631836 -12.54898071 8.87207031 C-11.14639961 1.74759203 -6.74592375 0.02204368 0 0 Z M8.0859375 20.64697266 C8.0859375 33.84697266 8.0859375 47.04697266 8.0859375 60.64697266 C21.2859375 60.64697266 34.4859375 60.64697266 48.0859375 60.64697266 C48.0859375 47.44697266 48.0859375 34.24697266 48.0859375 20.64697266 C34.8859375 20.64697266 21.6859375 20.64697266 8.0859375 20.64697266 Z " fill="#000000" transform="translate(347.9140625,125.35302734375)"/>
<path d="M0 0 C0.67544861 -0.0087616 1.35089722 -0.01752319 2.04681396 -0.02655029 C4.26885132 -0.04847103 6.48888166 -0.03402082 8.7109375 -0.01708984 C10.26123434 -0.02046017 11.81152859 -0.02531459 13.36181641 -0.03158569 C16.6067019 -0.03894698 19.85089795 -0.0282766 23.09570312 -0.00488281 C27.2489408 0.02360583 31.40056301 0.00719768 35.55374146 -0.02274513 C38.75378527 -0.04083902 41.95344793 -0.03505079 45.15350342 -0.02210617 C46.68447055 -0.01877787 48.21547262 -0.02283903 49.74639893 -0.03450394 C51.8891524 -0.04724882 54.02931399 -0.02779228 56.171875 0 C57.3892334 0.00397797 58.6065918 0.00795593 59.86083984 0.01205444 C64.09978207 0.84656611 65.55540159 2.17616235 68.0859375 5.64697266 C68.72085571 8.87207031 68.72085571 8.87207031 68.73291016 12.56103516 C68.74167175 13.23648376 68.75043335 13.91193237 68.75946045 14.60784912 C68.78138119 16.82988647 68.76693097 19.04991682 68.75 21.27197266 C68.75337032 22.82226949 68.75822474 24.37256375 68.76449585 25.92285156 C68.77185713 29.16773706 68.76118676 32.41193311 68.73779297 35.65673828 C68.70930432 39.80997596 68.72571248 43.96159817 68.75565529 48.11477661 C68.77374918 51.31482043 68.76796095 54.51448309 68.75501633 57.71453857 C68.75168803 59.2455057 68.75574919 60.77650777 68.76741409 62.30743408 C68.78015897 64.45018755 68.76070243 66.59034915 68.73291016 68.73291016 C68.72694321 70.55894775 68.72694321 70.55894775 68.72085571 72.421875 C67.88634404 76.66081723 66.5567478 78.11643675 63.0859375 80.64697266 C59.86083984 81.28189087 59.86083984 81.28189087 56.171875 81.29394531 C55.15870209 81.30708771 55.15870209 81.30708771 54.12506104 81.32049561 C51.90302368 81.34241634 49.68299334 81.32796613 47.4609375 81.31103516 C45.91064066 81.31440548 44.36034641 81.3192599 42.81005859 81.32553101 C39.5651731 81.33289229 36.32097705 81.32222192 33.07617188 81.29882812 C28.9229342 81.27033948 24.77131199 81.28674763 20.61813354 81.31669044 C17.41808973 81.33478433 14.21842707 81.3289961 11.01837158 81.31605148 C9.48740445 81.31272318 7.95640238 81.31678434 6.42547607 81.32844925 C4.2827226 81.34119413 2.14256101 81.32173759 0 81.29394531 C-1.2173584 81.28996735 -2.4347168 81.28598938 -3.68896484 81.28189087 C-7.92790707 80.4473792 -9.38352659 79.11778296 -11.9140625 75.64697266 C-12.54898071 72.421875 -12.54898071 72.421875 -12.56103516 68.73291016 C-12.57417755 67.71973724 -12.57417755 67.71973724 -12.58758545 66.68609619 C-12.60950619 64.46405884 -12.59505597 62.2440285 -12.578125 60.02197266 C-12.58149532 58.47167582 -12.58634974 56.92138157 -12.59262085 55.37109375 C-12.59998213 52.12620825 -12.58931176 48.8820122 -12.56591797 45.63720703 C-12.53742932 41.48396935 -12.55383748 37.33234714 -12.58378029 33.1791687 C-12.60187418 29.97912489 -12.59608595 26.77946222 -12.58314133 23.57940674 C-12.57981303 22.04843961 -12.58387419 20.51743754 -12.59553909 18.98651123 C-12.60828397 16.84375776 -12.58882743 14.70359617 -12.56103516 12.56103516 C-12.55705719 11.34367676 -12.55307922 10.12631836 -12.54898071 8.87207031 C-11.14639961 1.74759203 -6.74592375 0.02204368 0 0 Z M8.0859375 20.64697266 C8.0859375 33.84697266 8.0859375 47.04697266 8.0859375 60.64697266 C21.2859375 60.64697266 34.4859375 60.64697266 48.0859375 60.64697266 C48.0859375 47.44697266 48.0859375 34.24697266 48.0859375 20.64697266 C34.8859375 20.64697266 21.6859375 20.64697266 8.0859375 20.64697266 Z " fill="#000000" transform="translate(227.9140625,125.35302734375)"/>
<path d="M0 0 C0.67544861 -0.0087616 1.35089722 -0.01752319 2.04681396 -0.02655029 C4.26885132 -0.04847103 6.48888166 -0.03402082 8.7109375 -0.01708984 C10.26123434 -0.02046017 11.81152859 -0.02531459 13.36181641 -0.03158569 C16.6067019 -0.03894698 19.85089795 -0.0282766 23.09570312 -0.00488281 C27.2489408 0.02360583 31.40056301 0.00719768 35.55374146 -0.02274513 C38.75378527 -0.04083902 41.95344793 -0.03505079 45.15350342 -0.02210617 C46.68447055 -0.01877787 48.21547262 -0.02283903 49.74639893 -0.03450394 C51.8891524 -0.04724882 54.02931399 -0.02779228 56.171875 0 C57.3892334 0.00397797 58.6065918 0.00795593 59.86083984 0.01205444 C64.09978207 0.84656611 65.55540159 2.17616235 68.0859375 5.64697266 C68.72085571 8.87207031 68.72085571 8.87207031 68.73291016 12.56103516 C68.74167175 13.23648376 68.75043335 13.91193237 68.75946045 14.60784912 C68.78138119 16.82988647 68.76693097 19.04991682 68.75 21.27197266 C68.75337032 22.82226949 68.75822474 24.37256375 68.76449585 25.92285156 C68.77185713 29.16773706 68.76118676 32.41193311 68.73779297 35.65673828 C68.70930432 39.80997596 68.72571248 43.96159817 68.75565529 48.11477661 C68.77374918 51.31482043 68.76796095 54.51448309 68.75501633 57.71453857 C68.75168803 59.2455057 68.75574919 60.77650777 68.76741409 62.30743408 C68.78015897 64.45018755 68.76070243 66.59034915 68.73291016 68.73291016 C68.72694321 70.55894775 68.72694321 70.55894775 68.72085571 72.421875 C67.88634404 76.66081723 66.5567478 78.11643675 63.0859375 80.64697266 C59.86083984 81.28189087 59.86083984 81.28189087 56.171875 81.29394531 C55.15870209 81.30708771 55.15870209 81.30708771 54.12506104 81.32049561 C51.90302368 81.34241634 49.68299334 81.32796613 47.4609375 81.31103516 C45.91064066 81.31440548 44.36034641 81.3192599 42.81005859 81.32553101 C39.5651731 81.33289229 36.32097705 81.32222192 33.07617188 81.29882812 C28.9229342 81.27033948 24.77131199 81.28674763 20.61813354 81.31669044 C17.41808973 81.33478433 14.21842707 81.3289961 11.01837158 81.31605148 C9.48740445 81.31272318 7.95640238 81.31678434 6.42547607 81.32844925 C4.2827226 81.34119413 2.14256101 81.32173759 0 81.29394531 C-1.2173584 81.28996735 -2.4347168 81.28598938 -3.68896484 81.28189087 C-7.92790707 80.4473792 -9.38352659 79.11778296 -11.9140625 75.64697266 C-12.54898071 72.421875 -12.54898071 72.421875 -12.56103516 68.73291016 C-12.57417755 67.71973724 -12.57417755 67.71973724 -12.58758545 66.68609619 C-12.60950619 64.46405884 -12.59505597 62.2440285 -12.578125 60.02197266 C-12.58149532 58.47167582 -12.58634974 56.92138157 -12.59262085 55.37109375 C-12.59998213 52.12620825 -12.58931176 48.8820122 -12.56591797 45.63720703 C-12.53742932 41.48396935 -12.55383748 37.33234714 -12.58378029 33.1791687 C-12.60187418 29.97912489 -12.59608595 26.77946222 -12.58314133 23.57940674 C-12.57981303 22.04843961 -12.58387419 20.51743754 -12.59553909 18.98651123 C-12.60828397 16.84375776 -12.58882743 14.70359617 -12.56103516 12.56103516 C-12.55705719 11.34367676 -12.55307922 10.12631836 -12.54898071 8.87207031 C-11.14639961 1.74759203 -6.74592375 0.02204368 0 0 Z M8.0859375 20.64697266 C8.0859375 33.84697266 8.0859375 47.04697266 8.0859375 60.64697266 C21.2859375 60.64697266 34.4859375 60.64697266 48.0859375 60.64697266 C48.0859375 47.44697266 48.0859375 34.24697266 48.0859375 20.64697266 C34.8859375 20.64697266 21.6859375 20.64697266 8.0859375 20.64697266 Z " fill="#000000" transform="translate(107.9140625,125.35302734375)"/>
<path d="M0 0 C3.125 1.875 3.125 1.875 5 5 C5.98876625 10.02622846 5.7769173 13.70513784 3.125 18.125 C-1.29486216 20.7769173 -4.97377154 20.98876625 -10 20 C-13.125 18.125 -13.125 18.125 -15 15 C-15.98876625 9.97377154 -15.7769173 6.29486216 -13.125 1.875 C-8.70513784 -0.7769173 -5.02622846 -0.98876625 0 0 Z " fill="#000000" transform="translate(261,406)"/>
</svg>
