<?xml version="1.0" encoding="UTF-8"?>
<svg version="1.1" xmlns="http://www.w3.org/2000/svg" width="512" height="512">
<path d="M0 0 C15.51492212 13.21896985 26.5226371 31.53213957 28.17030883 52.12895536 C28.43115256 57.76072332 28.3766742 63.3946444 28.34057617 69.03076172 C28.3397281 70.90472398 28.34020854 72.77868724 28.34190369 74.65264893 C28.34275806 79.69720281 28.32522355 84.74153902 28.30418181 89.78604269 C28.28532109 95.07375046 28.28365721 100.36146422 28.28010559 105.64920044 C28.27081257 115.64316786 28.24623621 125.63703583 28.21605712 135.63095963 C28.18242734 147.01678518 28.1660056 158.40261569 28.15097082 169.78847861 C28.119684 193.19237402 28.06697729 216.59618142 28 240 C29.54373291 239.97824707 29.54373291 239.97824707 31.11865234 239.95605469 C32.48274455 239.94432561 33.84683984 239.93295107 35.2109375 239.921875 C35.88761475 239.91140137 36.56429199 239.90092773 37.26147461 239.89013672 C43.91568524 239.84963635 48.04860035 241.14679557 53.6875 244.6875 C60.29941244 251.29941244 62.34721986 257.84747696 62.3828125 267.09155273 C62.23833398 273.35906116 60.85644425 278.05228376 57 283 C52.34881759 287.41171559 47.14760361 290.98523964 40.671875 291.6328125 C39.87265625 291.71660156 39.0734375 291.80039062 38.25 291.88671875 C37.425 291.96535156 36.6 292.04398437 35.75 292.125 C34.90953125 292.21136719 34.0690625 292.29773438 33.203125 292.38671875 C31.13611777 292.59811722 29.06814072 292.79999462 27 293 C26.58110504 294.67677322 26.58110504 294.67677322 26.15374756 296.38742065 C23.51341924 306.95234547 20.86567368 317.51538745 18.21076584 328.07665825 C16.84628313 333.50559094 15.48436795 338.93514023 14.12841797 344.36621094 C12.81831223 349.61324947 11.50133507 354.85852028 10.17969513 360.10266495 C9.67814295 362.09778265 9.1790164 364.09351185 8.68242645 366.08987045 C7.98328943 368.89867704 7.27534235 371.70513088 6.56542969 374.51123047 C6.3647438 375.32619492 6.16405792 376.14115936 5.95729065 376.9808197 C1.4890217 394.47981577 -7.02166941 409.56206359 -22.4375 419.5 C-31.53868566 424.69759655 -40.80390208 427.04437762 -51 429 C-50.69707031 429.56920166 -50.39414062 430.13840332 -50.08203125 430.72485352 C-48.70640337 433.32981654 -47.35315211 435.94579639 -46 438.5625 C-45.52304687 439.45775391 -45.04609375 440.35300781 -44.5546875 441.27539062 C-41.95949174 446.33602236 -40.15934802 450.16751193 -41 456 C-42.23793674 458.91514136 -43.50196353 459.8208618 -46 462 C-49.5625 462.625 -49.5625 462.625 -53 462 C-56.59922907 459.05397738 -58.40288039 455.68496659 -60.453125 451.5546875 C-60.91075226 450.63805832 -60.91075226 450.63805832 -61.37762451 449.70291138 C-62.01662449 448.41890014 -62.65175975 447.13295903 -63.28320312 445.84521484 C-64.25247818 443.86994976 -65.23456824 441.90146713 -66.21875 439.93359375 C-71 430.2953991 -71 430.2953991 -71 428 C-149.21 428 -227.42 428 -308 428 C-308.66 429.98 -309.32 431.96 -310 434 C-311.83892023 438.10013206 -313.86747076 442.10512731 -315.875 446.125 C-316.40480469 447.20910156 -316.93460938 448.29320312 -317.48046875 449.41015625 C-317.99996094 450.45300781 -318.51945313 451.49585938 -319.0546875 452.5703125 C-319.52374512 453.51664551 -319.99280273 454.46297852 -320.47607422 455.43798828 C-322.07508189 458.12622706 -323.58484777 460.01377606 -326 462 C-330.95958592 462.70851227 -332.85837114 462.74555354 -337.0625 460 C-339.21812724 456.66225459 -339.20160031 455.17650743 -338.60766602 451.3359375 C-337.41479549 446.75040708 -335.14058539 442.66980123 -332.9375 438.5 C-332.46505859 437.5821875 -331.99261719 436.664375 -331.50585938 435.71875 C-330.34803509 433.4732726 -329.17935113 431.23422407 -328 429 C-328.8971875 428.98582031 -329.794375 428.97164063 -330.71875 428.95703125 C-345.35050467 428.39775964 -358.17563969 424.97670735 -370 416 C-370.77730469 415.42765625 -371.55460937 414.8553125 -372.35546875 414.265625 C-389.12223715 400.75986319 -393.10801199 379.32912956 -398.08203125 359.51953125 C-398.54535351 357.68958148 -399.00903945 355.85972375 -399.47306824 354.029953 C-400.43545723 350.2297758 -401.39390171 346.42863316 -402.34936523 342.62670898 C-403.573977 337.75492852 -404.80802341 332.88559554 -406.04488087 328.01691151 C-406.99975902 324.25434629 -407.95003342 320.49063045 -408.89887047 316.7265377 C-409.35244853 314.9292467 -409.80738466 313.13229785 -410.26371193 311.3357029 C-410.89765537 308.83667861 -411.52545956 306.33619128 -412.15161133 303.83520508 C-412.34012161 303.09704056 -412.5286319 302.35887604 -412.72285461 301.5983429 C-413.55362454 298.25413354 -414 295.47459342 -414 292 C-414.845625 292.02320313 -415.69125 292.04640625 -416.5625 292.0703125 C-427.38302821 292.24245727 -435.55513811 291.35105121 -444 284 C-450.37905723 275.98451003 -450.74514633 267.92493509 -450 258 C-447.8085619 250.10367686 -441.86243292 245.08825791 -435 241 C-431.42741497 239.61706386 -427.79220643 239.92707295 -424 240 C-423.814375 238.741875 -423.62875 237.48375 -423.4375 236.1875 C-421.15246783 226.09527459 -414.32289146 217.87812559 -406 212 C-395.59189851 205.69400961 -383.7387155 203.78859576 -371.84375 206.21875 C-367.39823368 207.44004569 -363.1914176 209.08975216 -359 211 C-358.731875 210.25621094 -358.46375 209.51242188 -358.1875 208.74609375 C-354.11774997 199.3347968 -345.18847431 194.10684024 -336.125 190.1875 C-324.95196838 186.41070058 -313.49099645 187.71031773 -302.9375 192.5625 C-298.62098973 194.81241848 -295.44504133 197.32700694 -292 200.75 C-287.47320302 205.09543493 -284.08192372 205.98144937 -277.9453125 206.640625 C-267.35890541 207.93233515 -259.63648762 214.15314509 -253.14453125 222.33984375 C-249.34449938 227.82877867 -246 233.19031754 -246 240 C-161.52 240 -77.04 240 10 240 C9.896875 209.2275 9.79375 178.455 9.6875 146.75 C9.65015747 132.19148926 9.65015747 132.19148926 9.61206055 117.33886719 C9.57548327 108.61586635 9.57548327 108.61586635 9.5349884 99.8928833 C9.51709883 96.0167317 9.50745585 92.14065509 9.50288391 88.26446533 C9.49676657 83.31011532 9.47633936 78.35601266 9.44583857 73.40175486 C9.43706719 71.58980874 9.43319421 69.77783019 9.43496072 67.9658637 C9.44746851 49.55125147 6.45520081 33.9519613 -6.7890625 20.1796875 C-7.88347656 19.10074219 -7.88347656 19.10074219 -9 18 C-9.56460937 17.42507812 -10.12921875 16.85015625 -10.7109375 16.2578125 C-21.69318054 5.91843246 -36.25267601 2.47587807 -50.86914062 2.58032227 C-64.42006699 2.99807981 -75.25377341 7.79409575 -84.6875 17.5625 C-93.20684318 28.05093665 -96.47487274 40.04499926 -99 53 C-97.17662109 53.41185547 -97.17662109 53.41185547 -95.31640625 53.83203125 C-85.9988654 56.17218404 -77.91700045 62.18320096 -72.56640625 70.12890625 C-67.38057764 78.97713014 -63.95759606 88.62673789 -66 99 C-68.65621232 102.393078 -70.12813826 103.84336186 -74.42164612 104.61473083 C-75.73084518 104.60966019 -77.04004425 104.60458954 -78.38891602 104.59936523 C-79.11473877 104.60330795 -79.84056152 104.60725067 -80.58837891 104.61131287 C-82.9775997 104.6180032 -85.36489129 104.58890771 -87.75390625 104.55859375 C-89.41869232 104.5543414 -91.08348433 104.55201482 -92.74827576 104.55152893 C-96.23276753 104.54537005 -99.71661482 104.52270119 -103.20092773 104.48706055 C-107.66546924 104.44175334 -112.12942802 104.4270323 -116.5941782 104.42332363 C-120.03002153 104.41889345 -123.46574281 104.40358737 -126.90153313 104.3844471 C-128.54774918 104.37557379 -130.1939782 104.36883947 -131.84021187 104.36428642 C-134.14052299 104.35523507 -136.44030978 104.33283796 -138.74047852 104.30639648 C-140.04888199 104.29575668 -141.35728546 104.28511688 -142.70533752 104.27415466 C-145.77353244 104.01884476 -147.49290033 103.73024326 -150 102 C-153.61097245 95.53174716 -152.01226971 87.6768541 -150.12890625 80.8359375 C-145.74435972 69.09324194 -137.13150281 60.19124824 -125.76171875 54.97265625 C-122.73909602 53.77355363 -120.26929155 53 -117 53 C-117.061875 51.30037109 -117.061875 51.30037109 -117.125 49.56640625 C-117.09514501 32.58264949 -108.85432218 15.19439092 -97.26782227 3.07788086 C-70.85113787 -23.22169632 -28.96755828 -21.85552328 0 0 Z M-129.6015625 80.87890625 C-131.27521758 82.99400504 -131.27521758 82.99400504 -131 86 C-115.82 86 -100.64 86 -85 86 C-88.10465905 78.23835238 -91.67773185 74.594568 -99 71 C-111.30149488 67.25715166 -121.52688842 71.41589888 -129.6015625 80.87890625 Z M-337.17578125 212.26953125 C-342.4240492 217.24808093 -344.33575749 222.26986774 -346.55859375 229.0390625 C-348.2393368 232.49164579 -349.51355718 233.48903014 -353 235 C-358.7257209 235.10603187 -361.21361776 233.22483141 -365.20703125 229.56640625 C-371.1560046 224.36915502 -376.9141384 223.28742461 -384.7421875 223.55078125 C-391.1850046 224.43917929 -396.65031526 227.1192491 -401 232 C-403.27468064 235.18884294 -403.27468064 235.18884294 -405 240 C-358.47 240 -311.94 240 -264 240 C-266.80388228 232.9902943 -270.58088225 227.88500033 -277.5859375 224.70703125 C-281.64649148 223.51777515 -285.73858428 223.35227491 -289.94921875 223.17578125 C-292.75977678 223.01384129 -295.29343668 222.77539382 -298 222 C-298.72904086 220.35965807 -299.38655243 218.68698082 -300 217 C-310.34251888 205.22102017 -324.63126108 202.46008466 -337.17578125 212.26953125 Z M-430.45562172 259.81271029 C-432.71768157 263.01644625 -432.54624667 265.17627328 -432 269 C-429.78136971 271.90717073 -428.48055071 272.83981643 -425 274 C-422.4682604 274.09710729 -419.96419813 274.13755118 -417.43239117 274.13142776 C-416.65069857 274.1334804 -415.86900597 274.13553303 -415.06362572 274.13764787 C-412.4225031 274.14333967 -409.78143227 274.14185794 -407.14030457 274.14044189 C-405.23633317 274.14302428 -403.33236232 274.14603708 -401.42839223 274.1494453 C-396.17922415 274.15753338 -390.93006973 274.15930587 -385.68089616 274.16004276 C-380.02638084 274.16189017 -374.37187266 274.16943588 -368.71736145 274.17617798 C-356.34563093 274.18977436 -343.97390364 274.19578797 -331.60216689 274.20018864 C-323.88174797 274.20294869 -316.16133031 274.20718559 -308.44091225 274.21169281 C-287.07811507 274.22388687 -265.71531943 274.23422151 -244.35251904 274.2375679 C-242.97077998 274.23778954 -241.58904093 274.23801132 -240.20730187 274.23823325 C-238.82220196 274.23845389 -237.43710205 274.23867438 -236.05200213 274.2388947 C-233.27319348 274.23933726 -230.49438482 274.23978437 -227.71557617 274.24023438 C-226.68210001 274.24039846 -226.68210001 274.24039846 -225.62774553 274.24056586 C-203.28188245 274.24419738 -180.93605179 274.26012087 -158.59020113 274.28342474 C-134.97204569 274.30801049 -111.35391533 274.32173341 -87.73574525 274.32293582 C-74.85821243 274.32385374 -61.98072206 274.32963545 -49.10320091 274.34775543 C-38.13946003 274.36312784 -27.17577473 274.3682938 -16.21202513 274.36001733 C-10.61540767 274.35610076 -5.01890223 274.35708943 0.57770157 274.37107468 C5.69808179 274.38375322 10.81826514 274.38266954 15.93864485 274.37048396 C17.7939678 274.36851644 19.64930441 274.37165371 21.50460813 274.38032833 C24.02160235 274.39135442 26.53789359 274.38398009 29.05486774 274.3719368 C29.77945571 274.37953199 30.50404368 274.38712718 31.25058886 274.39495254 C35.88128114 274.34694026 39.07040106 273.45301022 43 271 C44.54586876 267.90826248 44.29359521 265.40570448 44 262 C42.53579137 259.65058848 42.53579137 259.65058848 40 258 C37.26838897 257.60789797 34.94014602 257.46204801 32.21005249 257.49663544 C31.01968868 257.48791479 31.01968868 257.48791479 29.80527711 257.47901797 C27.12948329 257.4643475 24.45459668 257.4783357 21.77880859 257.49206543 C19.84779578 257.4874593 17.91678647 257.48110832 15.98578453 257.47315645 C10.66651305 257.45640053 5.34752725 257.46473791 0.02825451 257.47710133 C-5.70324997 257.48612393 -11.43470413 257.47219599 -17.16619873 257.46118164 C-28.39931899 257.44336195 -39.63233256 257.44725176 -50.86545706 257.4588322 C-59.99195833 257.4678527 -69.11842963 257.46909653 -78.24493408 257.46473694 C-80.1906924 257.46381754 -80.1906924 257.46381754 -82.17575896 257.46287957 C-84.81064591 257.46160071 -87.44553285 257.46030386 -90.08041978 257.4589892 C-114.10301819 257.44789896 -138.12555886 257.45941491 -162.14814797 257.48035959 C-184.08772883 257.49934267 -206.02721683 257.49764419 -227.96679688 257.47851562 C-252.60418189 257.45710683 -277.24151076 257.44867203 -301.87890434 257.46096468 C-304.50429153 257.46223892 -307.12967872 257.46349641 -309.75506592 257.46473694 C-311.04692672 257.46535404 -312.33878753 257.46597114 -313.66979563 257.46660694 C-322.78909272 257.4700658 -331.90835693 257.46421998 -341.02764893 257.45481873 C-352.13564452 257.44361939 -363.243527 257.44659524 -374.35150957 257.4679417 C-380.02284251 257.47847994 -385.69398661 257.48252679 -391.3653183 257.46934509 C-396.5516193 257.45747273 -401.73755547 257.46389824 -406.92382312 257.4852553 C-408.80531983 257.48974332 -410.68684703 257.48740619 -412.56832433 257.47775215 C-415.11601204 257.4656771 -417.66243221 257.47797149 -420.21005249 257.49663544 C-420.94923471 257.48727077 -421.68841693 257.47790611 -422.44999862 257.46825767 C-425.83791264 257.51823799 -427.69745623 257.77666584 -430.45562172 259.81271029 Z M-395 292 C-394.31088946 297.51288431 -393.49145227 302.58386963 -392.11401367 307.90966797 C-391.92522141 308.65555176 -391.73642914 309.40143555 -391.54191589 310.16992188 C-390.92228168 312.61198565 -390.29546874 315.05213401 -389.66796875 317.4921875 C-389.2303412 319.20551673 -388.79295204 320.91890688 -388.35578918 322.63235474 C-387.44029491 326.21555966 -386.5210791 329.79778466 -385.59936523 333.37939453 C-384.42477579 337.94535843 -383.26077075 342.51394392 -382.09974194 347.08337212 C-381.19937806 350.62100105 -380.29268673 354.15698575 -379.38421059 357.69253922 C-378.95278576 359.37513243 -378.52342911 361.05825747 -378.09627342 362.74193954 C-373.73462626 379.90882297 -368.99911993 395.41816403 -352.9609375 405.25 C-344.68492613 409.59570481 -337.3517319 410.29316286 -328.11555481 410.26742554 C-326.92155978 410.27195665 -325.72756476 410.27648776 -324.49738806 410.28115618 C-321.19563732 410.29160481 -317.89410491 410.29312974 -314.59235322 410.29076743 C-311.02641715 410.2903584 -307.46051326 410.30140671 -303.89459229 410.31088257 C-296.91244555 410.32747561 -289.93033259 410.33299137 -282.94816778 410.33410732 C-277.27003816 410.33505872 -271.59191966 410.33917358 -265.91379356 410.34550858 C-249.80203709 410.36311731 -233.69030724 410.37234816 -217.57854108 410.37084763 C-216.71046188 410.37076772 -215.84238268 410.3706878 -214.94799805 410.37060547 C-213.64428221 410.37048283 -213.64428221 410.37048283 -212.31422868 410.37035771 C-198.23540659 410.36954518 -184.15669158 410.38867533 -170.07790045 410.4168822 C-155.60893449 410.44564113 -141.14002071 410.4594208 -126.67102545 410.45769465 C-118.55304071 410.45703173 -110.43516818 410.46248088 -102.31720924 410.48405075 C-95.40398148 410.50230232 -88.4909168 410.50657748 -81.57767532 410.4930319 C-78.05408722 410.48652184 -74.53081162 410.48631319 -71.00725365 410.5037384 C-67.17768003 410.51921746 -63.34892001 410.50986354 -59.5193634 410.49447632 C-57.86888503 410.50990701 -57.86888503 410.50990701 -56.18506366 410.52564943 C-42.57603015 410.40531771 -31.48764234 405.60087701 -21.93359375 395.90234375 C-12.97037352 385.23553091 -10.3881014 371.46730073 -7.35546875 358.25 C-6.93741026 356.46051095 -6.51855745 354.67120731 -6.09895325 352.88208008 C-5.22795161 349.15867929 -4.36379339 345.43378394 -3.50512695 341.70751953 C-2.40463078 336.93259461 -1.29099812 332.16085594 -0.17281628 327.39004517 C0.68960218 323.70722554 1.54725214 320.02330963 2.40323448 316.33898926 C2.81252624 314.57809618 3.22280844 312.81743301 3.63410378 311.05700684 C4.20567946 308.60543438 4.77132712 306.15257155 5.33520508 303.69921875 C5.50501389 302.97504257 5.67482269 302.25086639 5.84977722 301.50474548 C6.60103078 298.20871156 7 295.40659654 7 292 C-125.66 292 -258.32 292 -395 292 Z " fill="#000000" transform="translate(450,33)"/>
<path d="M0 0 C2.1875 1.52734375 2.1875 1.52734375 4 4 C4.40091196 6.96851721 4.56058386 9.48151228 4.5 12.4375 C4.51546875 13.18837891 4.5309375 13.93925781 4.546875 14.71289062 C4.51947168 18.60758811 4.25261451 20.59303962 2.15234375 23.9765625 C-0.60081049 26.56482728 -2.24709127 26.92341003 -6 27 C-9.27482146 26.23841361 -10.59021161 25.54309304 -12.62109375 22.8515625 C-14.30558303 19.36805775 -14.39993839 16.8571383 -14.375 13 C-14.38273437 11.80375 -14.39046875 10.6075 -14.3984375 9.375 C-13.97294415 5.77082102 -13.13690633 3.89482385 -11 1 C-7.44544736 -1.79286279 -4.2131487 -1.05328717 0 0 Z " fill="#000000" transform="translate(312,188)"/>
<path d="M0 0 C2.45822555 1.68425829 3.79821405 2.96780218 4.38110352 5.94946289 C4.53964063 8.31256808 4.54538886 10.63221466 4.5 13 C4.51546875 13.80695313 4.5309375 14.61390625 4.546875 15.4453125 C4.52147423 19.29352853 4.48299339 21.34683806 2.1484375 24.50390625 C-0.68566414 26.47747158 -2.54371219 26.93087424 -6 27 C-9.47631926 25.79665872 -11.44148108 25.08307385 -13.15625 21.7578125 C-14.09028137 18.70491367 -14.26626762 16.18845276 -14.25 13 C-14.25515625 11.989375 -14.2603125 10.97875 -14.265625 9.9375 C-13.88245823 5.70012626 -13.07460524 2.9210902 -9.8125 0.125 C-6.0629369 -1.37482524 -3.87165104 -1.05590483 0 0 Z " fill="#000000" transform="translate(346,188)"/>
<path d="M0 0 C2.43410715 1.68752982 3.80045785 2.98435717 4.38305664 5.94970703 C4.53952736 8.31249227 4.5453803 10.63266101 4.5 13 C4.51546875 13.80695313 4.5309375 14.61390625 4.546875 15.4453125 C4.52147423 19.29352853 4.48299339 21.34683806 2.1484375 24.50390625 C-0.68566414 26.47747158 -2.54371219 26.93087424 -6 27 C-9.75981 25.77083134 -11.48764848 24.95483693 -13.375 21.4375 C-14.70959424 14.09723171 -14.93863341 7.51911737 -11 1 C-7.22551155 -1.44831683 -4.2447378 -1.26438998 0 0 Z " fill="#000000" transform="translate(380,188)"/>
<path d="M0 0 C0.77085937 -0.03738281 1.54171875 -0.07476562 2.3359375 -0.11328125 C5.59377229 0.49269826 6.68775672 1.65259968 8.625 4.3125 C9.12109375 7.40625 9.12109375 7.40625 9.0625 10.8125 C9.06121094 11.9365625 9.05992187 13.060625 9.05859375 14.21875 C8.58722159 17.58205404 8.07479329 18.98875871 5.625 21.3125 C2.64362179 22.38445621 -0.22401013 22.55020625 -3.375 22.3125 C-6.2907427 20.67239473 -7.81576222 19.56003044 -9.1875 16.5 C-9.69994019 10.5215311 -9.60860033 6.53600823 -6.375 1.3125 C-4.07513269 0.16256634 -2.56030912 0.0808071 0 0 Z " fill="#000000" transform="translate(341.375,225.6875)"/>
<path d="M0 0 C3 1.75 3 1.75 5 5 C5.62960067 9.08404681 5.80998105 12.9389226 5 17 C3.11904169 19.27330544 1.63217658 20.68391171 -1 22 C-4.85516754 22.25142397 -7.83651915 22.37261063 -11 20 C-13.59166202 15.72375767 -13.58917135 10.85406842 -13 6 C-10.19484107 -0.12034676 -6.52094673 -1.02240465 0 0 Z " fill="#000000" transform="translate(311,226)"/>
<path d="M0 0 C2.95969231 2.23962405 3.89613201 3.39512171 4.53125 7.09375 C4.5209375 8.2178125 4.510625 9.341875 4.5 10.5 C4.5103125 11.6240625 4.520625 12.748125 4.53125 13.90625 C3.89326447 17.62157749 3.03259153 18.80979501 0 21 C-3.06336489 21.73348174 -5.90997871 21.57369881 -9 21 C-12.03215675 18.80168636 -12.81654398 17.55036806 -14 14 C-14.24891725 9.51948957 -14.29402072 5.93260694 -12 2 C-7.96784472 -1.4561331 -5.02770326 -1.3711918 0 0 Z " fill="#000000" transform="translate(346,154)"/>
<path d="M0 0 C2.80608205 2.15968101 3.87350279 3.32379799 4.53125 6.83984375 C4.48509986 11.41447634 4.42968669 15.02853444 2.5625 19.25 C-0.70702801 21.4828484 -2.97461445 21.64529231 -6.875 21.43359375 C-9.91469955 20.81336094 -11.23752924 19.49683357 -13 17 C-14.7246216 13.5507568 -14.36610104 9.77868569 -14 6 C-12.75114491 3.06519055 -11.73422661 1.57689234 -9.25 -0.375 C-5.85887913 -1.31697802 -3.39008797 -0.84752199 0 0 Z " fill="#000000" transform="translate(312,154)"/>
<path d="M0 0 C2.25390625 1.625 2.25390625 1.625 4 4 C4.49609375 7.09375 4.49609375 7.09375 4.4375 10.5 C4.43621094 11.6240625 4.43492187 12.748125 4.43359375 13.90625 C3.963771 17.25849884 3.42134094 18.66690839 1 21 C-3.36718597 22.05657725 -5.70137079 22.50815925 -9.875 20.875 C-12.51019613 18.54982694 -13.26400202 17.45919052 -14 14 C-14.05979681 9.39564596 -13.80844545 5.41477955 -11.5 1.375 C-7.81724433 -0.65051562 -4.09589231 -0.98070661 0 0 Z " fill="#000000" transform="translate(380,226)"/>
<path d="M0 0 C2.42760953 2.32829823 2.96376515 3.74145946 3.43359375 7.09375 C3.43488281 8.2178125 3.43617188 9.341875 3.4375 10.5 C3.46650391 12.18609375 3.46650391 12.18609375 3.49609375 13.90625 C3 17 3 17 1.25390625 19.375 C-1.92914407 21.6698855 -4.06281758 21.58036875 -7.875 21.3671875 C-10 21 -10 21 -12.5 19.625 C-14.81464949 15.5743634 -15.18974168 11.62677796 -15 7 C-13.86830736 3.66448484 -12.97658687 1.83190734 -10.3125 -0.4375 C-6.83441937 -1.28351961 -3.38717464 -1.21020203 0 0 Z " fill="#000000" transform="translate(381,154)"/>
</svg>
