<?xml version="1.0" encoding="UTF-8"?>
<svg version="1.1" xmlns="http://www.w3.org/2000/svg" width="512" height="512">
<path d="M0 0 C1.66507272 -0.00187041 3.33014501 -0.00417202 4.99521661 -0.00686532 C9.55183538 -0.0129613 14.10843574 -0.01285233 18.66505766 -0.01167095 C23.58680724 -0.01146638 28.508551 -0.01699099 33.43029785 -0.02172852 C43.06569758 -0.03002342 52.70109118 -0.03278283 62.33649418 -0.03334089 C70.17080505 -0.03381658 78.0051139 -0.03587397 85.83942413 -0.03904152 C108.06578586 -0.04784475 130.29214277 -0.05246139 152.51850626 -0.05171105 C153.71592031 -0.05167109 154.91333436 -0.05163113 156.14703369 -0.05158997 C157.9453552 -0.05152864 157.9453552 -0.05152864 159.78000644 -0.05146609 C179.20829963 -0.05105966 198.63657344 -0.06062925 218.06486103 -0.07472833 C238.02804566 -0.08910094 257.99122085 -0.09599804 277.95441079 -0.09513456 C289.15646194 -0.0948029 300.35849276 -0.09753611 311.56053925 -0.10831261 C321.09802472 -0.11742921 330.63548065 -0.1195833 340.1729686 -0.11280318 C345.03543298 -0.10954392 349.89784073 -0.10945985 354.76029968 -0.11815643 C359.21895345 -0.12604854 363.67750592 -0.12456246 368.1361573 -0.1158723 C369.74175007 -0.11434327 371.34735051 -0.11613074 372.95293424 -0.12173238 C392.00253351 -0.18374644 408.2678396 1.88856952 423.55426025 14.13371277 C424.17945557 14.63257996 424.80465088 15.13144714 425.4487915 15.64543152 C434.10410314 23.40199748 438.3006224 34.28825325 441.55426025 45.13371277 C441.55426025 62.62371277 441.55426025 80.11371277 441.55426025 98.13371277 C272.59426025 98.13371277 103.63426025 98.13371277 -70.44573975 98.13371277 C-70.44573975 32.7060873 -70.44573975 32.7060873 -55.38323975 16.38371277 C-39.41835378 1.39960478 -20.87477293 -0.02229761 0 0 Z " fill="#000000" transform="translate(70.44573974609375,223.8662872314453)"/>
<path d="M0 0 C1.18345322 -0.00382555 2.36690644 -0.00765109 3.58622187 -0.01159257 C6.84922383 -0.02008912 10.1120808 -0.01970294 13.37508643 -0.01541197 C16.90280998 -0.01293606 20.43050753 -0.02196966 23.95822144 -0.02944946 C30.86122382 -0.04217487 37.76418727 -0.04399282 44.66719941 -0.0416492 C50.28092143 -0.03986333 55.89463167 -0.04162144 61.50835228 -0.04587364 C62.30852296 -0.04646883 63.10869363 -0.04706402 63.9331119 -0.04767724 C65.55887932 -0.04888905 67.18464674 -0.05010318 68.81041416 -0.05131962 C84.04469462 -0.06218701 99.27895293 -0.06003656 114.51323464 -0.05393478 C128.43348162 -0.04876727 142.35365859 -0.06001808 156.27389172 -0.07903299 C170.58471826 -0.0984308 184.8955117 -0.10666393 199.20635146 -0.10290974 C207.23373989 -0.10100053 215.26106875 -0.1034579 223.28844643 -0.11762428 C230.12292226 -0.1295639 236.95730186 -0.1309142 243.79177908 -0.11883412 C247.27482411 -0.11296325 250.75769336 -0.11179589 254.24072647 -0.12383652 C258.02628716 -0.13432164 261.81137967 -0.12618836 265.59692383 -0.11352539 C266.68420566 -0.12089968 267.77148749 -0.12827396 268.89171726 -0.13587171 C283.35029464 -0.03456532 297.6237852 4.42515083 308.37565613 14.48335266 C319.23143597 26.44311012 325.3703423 39.82703643 325.21598816 55.99336243 C325.21628021 56.81397659 325.21657227 57.63459076 325.21687317 58.48007202 C325.2154939 61.15836128 325.19999973 63.83636277 325.18424988 66.51460266 C325.18051475 68.38503874 325.17767014 70.25547679 325.17567444 72.12591553 C325.16807736 77.02329512 325.148463 81.92055407 325.12626648 86.81788635 C325.10210432 92.70759336 325.09300836 98.59734094 325.08135986 104.48708344 C325.06203601 113.41170473 325.02368612 122.33606185 324.98893738 131.26069641 C298.25893738 131.26069641 271.52893738 131.26069641 243.98893738 131.26069641 C243.65893738 125.65069641 243.32893738 120.04069641 242.98893738 114.26069641 C240.21884714 98.36912607 233.93524111 85.94647656 220.98112488 75.93647766 C204.91018705 65.25542438 188.21088032 65.65004273 169.51893616 65.72339439 C166.07467967 65.73366272 162.63046159 65.72409099 159.186203 65.71784973 C153.40682707 65.71061291 147.62765692 65.72005573 141.84831238 65.73921204 C135.20720676 65.7609733 128.5665927 65.75391908 121.92549896 65.73190641 C116.1797445 65.71363819 110.4341363 65.7112493 104.68836212 65.72166109 C101.27585825 65.7278339 97.86358386 65.72890656 94.45109558 65.71551514 C71.96621621 65.6549454 54.42481312 66.72012938 37.31315613 82.78413391 C24.2535615 96.69973558 23.07629717 112.77558002 21.98893738 131.26069641 C-4.74106262 131.26069641 -31.47106262 131.26069641 -59.01106262 131.26069641 C-59.13138905 110.77846444 -59.13138905 110.77846444 -59.157547 101.98725891 C-59.17541808 96.00963766 -59.19646435 90.03215545 -59.23738098 84.05464172 C-59.27019208 79.23058304 -59.28796113 74.40667365 -59.29569435 69.5825119 C-59.30119908 67.75028893 -59.31194747 65.9180733 -59.32825279 64.08591461 C-59.477391 46.61896197 -57.31343365 30.26279992 -44.78840637 16.87397766 C-31.45099818 4.76771484 -17.72351631 -0.06122897 0 0 Z " fill="#000000" transform="translate(123.01106262207031,63.73930358886719)"/>
<path d="M0 0 C168.96 0 337.92 0 512 0 C512 87 512 87 509 92 C503.99978195 96.39043536 501.09017096 97.36230049 494.5390625 97.27734375 C490.77539598 96.86623556 488.78209813 95.5171364 486 93 C482 87 482 87 482 65 C332.84 65 183.68 65 30 65 C30 72.26 30 79.52 30 87 C27.15356051 91.74406581 24.91364803 94.54317599 20 97 C15.0747885 97.54035594 11.13058282 97.54435469 6.625 95.375 C4 93 4 93 0 87 C0 58.29 0 29.58 0 0 Z " fill="#000000" transform="translate(0,351)"/>
<path d="M0 0 C1.01757385 -0.0071553 2.03514771 -0.01431061 3.08355713 -0.02168274 C4.19425568 -0.02437164 5.30495422 -0.02706055 6.4493103 -0.02983093 C7.62376709 -0.03640213 8.79822388 -0.04297333 10.00827026 -0.04974365 C13.89925489 -0.06947118 17.79022599 -0.08114388 21.6812439 -0.09111023 C23.02449946 -0.09516011 24.36775482 -0.0992771 25.71100998 -0.10346031 C32.02533992 -0.12250405 38.33965825 -0.1367348 44.65401137 -0.14507228 C51.92353411 -0.15483132 59.19275127 -0.18111898 66.46216643 -0.22157317 C72.09293254 -0.25182394 77.72361152 -0.26654974 83.35445726 -0.26985329 C86.71175975 -0.27219432 90.0684772 -0.28302983 93.42573929 -0.30631447 C97.17863353 -0.33072293 100.93073559 -0.32973695 104.6836853 -0.32279968 C105.78223846 -0.33560974 106.88079163 -0.3484198 108.01263428 -0.36161804 C116.22846866 -0.30647097 123.24543809 1.17977638 129.7671814 6.39717102 C138.25851892 17.07199534 137.9546814 22.0153899 137.9546814 37.14717102 C83.8346814 37.14717102 29.7146814 37.14717102 -26.0453186 37.14717102 C-26.0453186 16.14717102 -26.0453186 16.14717102 -19.7953186 8.33467102 C-13.4224234 3.26532256 -8.27337876 0.04004116 0 0 Z " fill="#000000" transform="translate(200.04531860351563,157.8528289794922)"/>
</svg>
