<?xml version="1.0" encoding="UTF-8"?>
<svg version="1.1" xmlns="http://www.w3.org/2000/svg" width="512" height="512">
<path d="M0 0 C0.95729004 0.26312988 1.91458008 0.52625977 2.90087891 0.79736328 C30.66012189 8.71513283 54.43531427 22.86734548 75 43 C75.73476563 43.68449219 76.46953125 44.36898437 77.2265625 45.07421875 C104.64118692 71.12357303 119.35754315 109.78538549 121 147 C122.32073545 208.40759497 89.44889868 258.20402298 54.3828125 305.6940918 C43.35572489 320.63454514 32.60565275 335.75802673 22 351 C21.35627441 351.92506348 20.71254883 352.85012695 20.04931641 353.80322266 C17.35272808 357.67911543 14.65663658 361.5553525 11.96166992 365.43237305 C7.09074642 372.43825446 2.20649707 379.43463798 -2.69775391 386.41723633 C-5.87291011 390.94239849 -9.02300027 395.48329508 -12.1484375 400.04296875 C-12.85226562 401.06583984 -13.55609375 402.08871094 -14.28125 403.14257812 C-15.63263175 405.10788051 -16.97933759 407.07641022 -18.3203125 409.04882812 C-29.40262406 425.13420802 -29.40262406 425.13420802 -35 427 C-39.38682209 427.38663517 -43.5298181 427.54704443 -47.6875 426 C-53.87282617 420.65052872 -58.5568806 414.01665496 -63.0625 407.25 C-64.20213143 405.56182885 -65.34278998 403.8743507 -66.484375 402.1875 C-67.06509766 401.32769531 -67.64582031 400.46789062 -68.24414062 399.58203125 C-71.0591591 395.44248239 -73.93438732 391.3458229 -76.8125 387.25 C-81.89254062 380.01209748 -86.95376119 372.76151277 -92 365.5 C-111.14716064 337.94014624 -111.14716064 337.94014624 -130.8125 310.75 C-133.20963669 307.5009588 -135.60566603 304.25110725 -138 301 C-138.55091309 300.25202148 -139.10182617 299.50404297 -139.66943359 298.73339844 C-170.48078744 256.79289092 -198.70656608 211.46567821 -201 158 C-201.04125 157.16210938 -201.0825 156.32421875 -201.125 155.4609375 C-202.1125809 115.58735865 -186.61775075 76.36207422 -159.31884766 47.47851562 C-158.328123 46.44477141 -157.33474741 45.41355943 -156.33837891 44.38525391 C-155.18428424 43.19073856 -154.04923142 41.97787918 -152.91796875 40.76171875 C-115.56099159 1.51723116 -51.78345657 -14.27345974 0 0 Z M-98 40 C-98.65419922 40.32452148 -99.30839844 40.64904297 -99.98242188 40.98339844 C-111.13856345 46.60500539 -120.64983687 53.75176251 -130 62 C-130.86367187 62.76054688 -131.72734375 63.52109375 -132.6171875 64.3046875 C-147.74623341 78.57229307 -158.96433521 98.21307119 -165 118 C-165.21027832 118.67740234 -165.42055664 119.35480469 -165.63720703 120.05273438 C-171.93195298 141.36416248 -171.14379704 166.74707769 -165 188 C-164.75330566 188.8573877 -164.50661133 189.71477539 -164.25244141 190.59814453 C-156.28536295 217.51209955 -142.29397355 241.29345132 -126 264 C-125.50032715 264.70012207 -125.0006543 265.40024414 -124.48583984 266.12158203 C-118.40186352 274.638391 -112.21605711 283.07930086 -106 291.5 C-96.4717365 304.40764208 -87.04983849 317.37266007 -78 330.62109375 C-74.42494486 335.85095133 -70.80638153 341.05041305 -67.1875 346.25 C-66.17417603 347.70623779 -66.17417603 347.70623779 -65.14038086 349.19189453 C-59.94791761 356.64891224 -54.73979204 364.09491544 -49.51635742 371.53027344 C-48.97986572 372.29500977 -48.44337402 373.05974609 -47.890625 373.84765625 C-47.39111328 374.55809082 -46.89160156 375.26852539 -46.37695312 376.00048828 C-45.11812524 377.82846708 -43.92282829 379.68453642 -42.734375 381.55859375 C-42.16203125 382.36425781 -41.5896875 383.16992188 -41 384 C-40.34 384 -39.68 384 -39 384 C-37.32858149 381.78382287 -35.77984891 379.562013 -34.25 377.25 C-33.25227213 375.77017884 -32.25352717 374.29104306 -31.25390625 372.8125 C-30.7242627 372.02617187 -30.19461914 371.23984375 -29.64892578 370.4296875 C-26.87265408 366.33885896 -24.02910443 362.29559334 -21.1875 358.25 C-19.99343961 356.54691003 -18.79942969 354.84378469 -17.60546875 353.140625 C-17.00911621 352.29048828 -16.41276367 351.44035156 -15.79833984 350.56445312 C-13.44464558 347.20805826 -11.09380887 343.84966863 -8.7434082 340.4909668 C-7.57957634 338.82809374 -6.41534996 337.16549673 -5.25073242 335.50317383 C-2.32655002 331.32874136 0.59209611 327.1506351 3.5 322.96484375 C10.37392997 313.08303007 17.39206804 303.32774653 24.55859375 293.65625 C29.58148621 286.87399837 34.52091095 280.03220904 39.43847656 273.17333984 C40.96051645 271.0549535 42.49163667 268.94336506 44.0234375 266.83203125 C68.41288607 233.00433679 89.43317747 195.71645381 89.375 152.9375 C89.37445618 152.25879852 89.37391235 151.58009705 89.37335205 150.88082886 C89.33170813 139.53652528 88.36811147 128.87879216 85 118 C84.69449219 116.98824707 84.69449219 116.98824707 84.3828125 115.95605469 C74.4499524 84.1494425 51.31297989 57.69609245 22.109375 42.1015625 C10.7438588 36.21372861 -0.49696102 31.8099906 -13 29 C-13.91910156 28.78601562 -14.83820313 28.57203125 -15.78515625 28.3515625 C-43.41823678 22.59988058 -72.95339658 27.37560201 -98 40 Z " fill="#000000" transform="translate(296,4)"/>
<path d="M0 0 C4.16856155 2.05263226 6.49815771 4.85931089 8.328125 9.10546875 C9.4230702 13.28486742 9.31569357 17.30024844 7.92578125 21.38671875 C4.07666049 27.09905933 -0.9347174 30.1731584 -6.76171875 33.69921875 C-7.62861328 34.23611328 -8.49550781 34.77300781 -9.38867188 35.32617188 C-15.51716933 39.10819404 -15.51716933 39.10819404 -18.07421875 40.38671875 C-18.07421875 41.04671875 -18.07421875 41.70671875 -18.07421875 42.38671875 C-16.13835533 43.87372002 -16.13835533 43.87372002 -13.59765625 45.37109375 C-12.62787842 45.96946045 -11.65810059 46.56782715 -10.65893555 47.18432617 C-9.599729 47.82861572 -8.54052246 48.47290527 -7.44921875 49.13671875 C-5.23385212 50.50175593 -3.01901962 51.86766031 -0.8046875 53.234375 C-0.24004288 53.58168167 0.32460175 53.92898834 0.90635681 54.28681946 C6.38660351 57.65957693 11.81633416 61.10880484 17.23828125 64.57421875 C19.05325167 65.73198053 20.86835432 66.88953504 22.68359375 68.046875 C23.55918945 68.6052002 24.43478516 69.16352539 25.33691406 69.73876953 C29.42279441 72.33964584 33.51734003 74.92672473 37.61328125 77.51171875 C38.38438232 77.99850098 39.1554834 78.4852832 39.94995117 78.98681641 C43.87664006 81.46487603 47.80492834 83.94037848 51.734375 86.4140625 C52.53125732 86.91639404 53.32813965 87.41872559 54.14916992 87.9362793 C55.73546613 88.93559592 57.32284967 89.93318883 58.91137695 90.92895508 C62.89203192 93.43268126 66.83085668 95.981024 70.72265625 98.62109375 C71.87773682 99.39634399 71.87773682 99.39634399 73.05615234 100.18725586 C74.51554541 101.17029058 75.96695287 102.16532285 77.40869141 103.17407227 C78.06144043 103.61162842 78.71418945 104.04918457 79.38671875 104.5 C79.95181152 104.88969971 80.5169043 105.27939941 81.09912109 105.6809082 C83.73205399 106.69825771 85.25114271 106.2138643 87.92578125 105.38671875 C90.45757375 104.09709588 90.45757375 104.09709588 92.99609375 102.4296875 C93.96522705 101.81778564 94.93436035 101.20588379 95.93286133 100.57543945 C96.9617749 99.91503662 97.99068848 99.25463379 99.05078125 98.57421875 C100.12030029 97.89641357 101.18981934 97.2186084 102.29174805 96.52026367 C104.47466106 95.13613199 106.65557899 93.74884876 108.83447266 92.35839844 C112.3591929 90.11028276 115.89479288 87.87989682 119.43237305 85.65209961 C121.74444934 84.19533243 124.05421663 82.73497295 126.36328125 81.2734375 C129.4242436 79.33609468 132.48672437 77.40119496 135.55078125 75.46875 C145.0152869 69.49881584 154.46615586 63.50808835 163.89624023 57.48388672 C168.20209657 54.7372659 172.5172653 52.01135125 176.875 49.34765625 C177.62692627 48.88633301 178.37885254 48.42500977 179.15356445 47.94970703 C180.55061523 47.09543312 181.95133131 46.24711507 183.35620117 45.40576172 C184.91316045 44.45248767 186.42555274 43.42699181 187.92578125 42.38671875 C187.92578125 41.72671875 187.92578125 41.06671875 187.92578125 40.38671875 C186.31167708 39.142591 186.31167708 39.142591 184.19921875 37.9609375 C183.41417969 37.49365234 182.62914062 37.02636719 181.8203125 36.54492188 C180.98886719 36.05958984 180.15742188 35.57425781 179.30078125 35.07421875 C163.27603227 25.68172234 163.27603227 25.68172234 160.92578125 17.38671875 C160.67550413 11.41135255 161.90350114 6.95255022 165.92578125 2.38671875 C170.11566107 -0.60605255 174.14445316 -1.33765763 179.19921875 -1.12890625 C184.0781688 -0.20623948 187.82972296 2.36820128 191.92871094 5.07617188 C194.29778264 6.63083898 196.69243606 8.14174331 199.08984375 9.65234375 C202.91485062 12.06557536 206.72931739 14.49415276 210.53515625 16.9375 C213.78156431 19.02097306 217.03689235 21.0862467 220.31640625 23.1171875 C220.95723145 23.51760254 221.59805664 23.91801758 222.25830078 24.33056641 C223.91769108 25.36615975 225.58169847 26.39434491 227.24609375 27.421875 C231.0471762 30.20896606 233.43079315 32.90175446 234.92578125 37.38671875 C235.29404349 43.00271791 235.14134132 46.56337864 231.92578125 51.38671875 C227.3716995 55.50543305 222.45033932 58.72495548 217.23828125 61.94921875 C215.53638518 63.01290379 213.83456436 64.07670925 212.1328125 65.140625 C211.26736816 65.67961426 210.40192383 66.21860352 209.51025391 66.77392578 C205.47125492 69.29438935 201.44900219 71.8411765 197.42578125 74.38671875 C195.84253699 75.38685977 194.25920342 76.38685942 192.67578125 77.38671875 C191.89203125 77.88171875 191.10828125 78.37671875 190.30078125 78.88671875 C168.92578125 92.38671875 147.55078125 105.88671875 126.17578125 119.38671875 C125.39066162 119.88260498 124.60554199 120.37849121 123.79663086 120.8894043 C122.22720964 121.88057517 120.65771204 122.87162511 119.08813477 123.86254883 C114.91628317 126.4966027 110.74611789 129.13328134 106.578125 131.7734375 C105.70542969 132.32580078 104.83273437 132.87816406 103.93359375 133.44726562 C102.25211885 134.51160346 100.57111003 135.57667806 98.890625 136.64257812 C98.1378125 137.11888672 97.385 137.59519531 96.609375 138.0859375 C95.94478271 138.50705811 95.28019043 138.92817871 94.59545898 139.36206055 C89.51702682 142.47862434 84.72165706 142.49214923 78.92578125 141.38671875 C73.41185389 139.01180622 68.46693995 135.47584908 63.50927734 132.12841797 C59.82536886 129.64486069 56.0980568 127.22944558 52.37402344 124.80664062 C50.39978602 123.52099943 48.42779465 122.23190293 46.45800781 120.93945312 C39.94563425 116.67011006 33.36481405 112.54485836 26.70092773 108.51733398 C17.91037716 103.19320327 9.27152471 97.63168493 0.61132812 92.09912109 C-3.50521081 89.47426617 -7.63259541 86.866718 -11.76171875 84.26171875 C-12.53378662 83.77453369 -13.30585449 83.28734863 -14.10131836 82.78540039 C-15.6499964 81.80832209 -17.19874284 80.83135218 -18.74755859 79.85449219 C-21.10299764 78.36856359 -23.45785889 76.88172393 -25.8125 75.39453125 C-26.59906982 74.89791992 -27.38563965 74.40130859 -28.19604492 73.88964844 C-29.77123356 72.89417967 -31.34562671 71.89745094 -32.91918945 70.89941406 C-37.03275 68.2929199 -41.16099595 65.71511331 -45.31640625 63.17578125 C-46.17556641 62.64597656 -47.03472656 62.11617188 -47.91992188 61.5703125 C-49.55660908 60.5617593 -51.19825838 59.56119613 -52.84570312 58.5703125 C-58.36707391 55.1511809 -62.94261148 51.78154057 -65.07421875 45.38671875 C-65.49983605 40.27931113 -65.4622542 36.55606041 -62.57739258 32.0859375 C-56.53259311 25.2527713 -46.94874476 20.70925706 -39.26171875 15.94921875 C-38.21161621 15.29614746 -37.16151367 14.64307617 -36.07958984 13.97021484 C-33.0797301 12.10591357 -30.07743653 10.24560429 -27.07421875 8.38671875 C-25.91768799 7.66959717 -25.91768799 7.66959717 -24.73779297 6.93798828 C-9.1711477 -2.71161994 -9.1711477 -2.71161994 0 0 Z " fill="#000000" transform="translate(171.07421875,370.61328125)"/>
<path d="M0 0 C17.00650746 13.61469356 29.28347593 33.11547896 32 55 C33.51541102 82.56153791 28.00936463 104.75085145 9.54296875 125.80078125 C-5.85918553 142.10496506 -26.3400602 151.09997414 -48.73046875 152.125 C-70.58345309 152.58688606 -91.73113277 145.80649714 -108 131 C-108.91652344 130.17628906 -109.83304688 129.35257813 -110.77734375 128.50390625 C-117.60476087 122.05110736 -122.55147246 115.25719839 -127 107 C-127.48210937 106.10667969 -127.96421875 105.21335937 -128.4609375 104.29296875 C-137.68049217 85.6582931 -139.63688741 62.00630344 -133.19140625 42.17578125 C-132.79824219 41.12777344 -132.40507812 40.07976562 -132 39 C-131.63777344 37.96230469 -131.27554688 36.92460937 -130.90234375 35.85546875 C-122.78203579 14.41235045 -106.002132 -1.48524066 -85.41333008 -10.79638672 C-57.31102256 -22.88601488 -24.34163785 -18.19178381 0 0 Z M-92.625 32.18359375 C-103.19616689 44.71946765 -106.29043693 58.73802033 -105.23193359 74.81591797 C-104.6915504 79.90462122 -103.13907726 84.38409644 -101 89 C-100.649375 89.78375 -100.29875 90.5675 -99.9375 91.375 C-93.68219376 103.88561249 -82.576072 113.46214879 -69.5 118.22265625 C-55.4223191 122.59993516 -41.60359786 121.70159528 -28.1015625 115.71484375 C-13.59622168 107.50125171 -4.01791078 95.06807368 0.54638672 79.08691406 C3.48510347 65.56691901 0.81557425 51.07701947 -6.125 39.3125 C-14.67973146 26.92164685 -26.00050863 18.4363117 -40.625 14.5 C-60.71917043 11.32320734 -78.73033644 17.33973079 -92.625 32.18359375 Z " fill="#000000" transform="translate(308,94)"/>
</svg>
