<svg version="1.1" id="Layer_1" xmlns="http://www.w3.org/2000/svg" xmlns:xlink="http://www.w3.org/1999/xlink" x="0px" y="0px"
	 width="100%" viewBox="0 0 2000 1500" enable-background="new 0 0 2000 1500" xml:space="preserve">
<path fill="#001F3F" opacity="1.000000" stroke="none" 
	d="
M1233.000000,1501.000000 
	C822.000122,1501.000000 411.500244,1501.000000 1.000275,1501.000000 
	C1.000184,1001.000244 1.000184,501.000549 1.000092,1.000611 
	C667.666199,1.000407 1334.332397,1.000407 2000.998901,1.000204 
	C2000.999268,500.999390 2000.999268,1000.998779 2000.999634,1500.999023 
	C1745.166626,1501.000000 1489.333374,1501.000000 1233.000000,1501.000000 
M1396.813232,766.499939 
	C1396.813232,777.923889 1396.813232,789.347839 1396.813232,800.746826 
	C1488.647095,800.746826 1579.873535,800.746826 1671.136963,800.746826 
	C1671.136963,722.047241 1671.136963,643.637817 1671.136963,565.234192 
	C1519.238770,565.234192 1367.639160,565.234192 1215.929077,565.234192 
	C1215.929077,643.862244 1215.929077,722.255249 1215.929077,800.722778 
	C1248.893188,800.722778 1281.614136,800.722778 1314.734985,800.722778 
	C1314.734985,752.483582 1314.734985,704.556213 1314.734985,656.386841 
	C1342.200684,656.386841 1369.264771,656.386841 1396.813232,656.386841 
	C1396.813232,692.930664 1396.813232,729.215271 1396.813232,766.499939 
M1174.531006,500.245117 
	C1171.077881,500.245117 1167.624634,500.245117 1164.047852,500.245117 
	C1164.047852,515.024719 1164.047852,529.256226 1164.047852,543.521118 
	C1350.990479,543.521118 1537.639282,543.521118 1724.243408,543.521118 
	C1724.243408,528.930603 1724.243408,514.702332 1724.243408,500.103394 
	C1679.755493,500.103394 1635.662720,500.103394 1591.154297,500.103394 
	C1591.154297,472.321167 1591.154297,444.911041 1591.154297,417.268494 
	C1536.684204,417.268494 1482.632568,417.268494 1428.001831,417.268494 
	C1428.001831,445.025879 1428.001831,472.563934 1428.001831,500.245117 
	C1343.456543,500.245117 1259.490112,500.245117 1174.531006,500.245117 
M788.951355,855.500000 
	C788.951355,887.992554 788.950989,920.485168 788.951538,952.977722 
	C788.951782,972.139954 788.749512,991.306458 789.144348,1010.460571 
	C789.214722,1013.874084 790.834106,1018.468384 793.357178,1020.374390 
	C799.193359,1024.782959 806.347046,1024.156006 812.890137,1021.486206 
	C818.877380,1019.043274 818.958496,1013.403076 818.954529,1007.910217 
	C818.924072,965.419983 818.937683,922.929810 818.937683,880.439575 
	C818.937683,878.685181 818.937744,876.930725 818.937744,875.123840 
	C821.656799,874.990906 823.625488,874.894592 825.668640,874.794678 
	C826.472046,876.652161 827.229980,878.298828 827.904297,879.979065 
	C844.916992,922.368347 862.099670,964.690979 878.799866,1007.203186 
	C882.929565,1017.715637 890.488342,1022.395874 900.844666,1022.750183 
	C906.678894,1022.949768 912.784729,1021.798584 918.408020,1020.078491 
	C927.640625,1017.254333 930.119446,1013.135254 930.120422,1003.461365 
	C930.126038,947.474243 930.124390,891.487183 930.117859,835.500061 
	C930.117676,833.834839 930.582458,831.879822 929.882874,830.563538 
	C928.326843,827.635681 926.778992,823.884155 924.153137,822.483765 
	C911.733765,815.861267 900.455261,822.840088 900.452576,836.695251 
	C900.444275,878.852234 900.449585,921.009155 900.449524,963.166138 
	C900.449524,964.957275 900.449463,966.748413 900.449463,968.761719 
	C897.965332,969.061707 895.872375,969.314453 893.485535,969.602661 
	C892.602905,967.458984 891.772583,965.496338 890.983215,963.517334 
	C873.998169,920.935791 856.970215,878.371338 840.081360,835.751709 
	C837.145203,828.342285 832.230530,823.670776 824.430969,821.859131 
	C815.717896,819.835327 807.244141,820.562256 798.926758,823.610840 
	C791.997192,826.150696 789.109497,830.181396 788.982605,837.504395 
	C788.884460,843.168152 788.955566,848.834717 788.951355,855.500000 
M1085.082275,996.101196 
	C1077.156616,994.007629 1073.027344,988.601013 1073.009277,979.511963 
	C1072.932861,941.179504 1072.920288,902.846680 1073.008789,864.514282 
	C1073.035034,853.114685 1078.971191,847.343445 1090.401978,847.273865 
	C1104.067871,847.190735 1117.735107,847.197021 1131.401001,847.272888 
	C1143.024170,847.337402 1148.775513,853.153442 1148.968750,864.902588 
	C1149.051025,869.901245 1148.878906,874.906128 1149.045410,879.900757 
	C1149.251343,886.075500 1152.522949,889.968628 1158.607910,890.819092 
	C1162.031616,891.297607 1165.627686,891.290283 1169.055542,890.828857 
	C1175.374756,889.978210 1178.699463,886.085266 1178.900635,879.603027 
	C1179.086548,873.608826 1178.954468,867.604675 1178.957520,861.604919 
	C1178.969604,837.565125 1162.475098,823.992615 1140.184204,822.294067 
	C1120.797729,820.816895 1101.127441,820.864624 1081.732422,822.285400 
	C1059.770142,823.894287 1042.909668,837.563354 1042.968628,861.608398 
	C1043.067017,901.774109 1042.889404,941.940552 1043.036011,982.105957 
	C1043.115967,1004.017761 1059.716797,1021.304443 1081.650757,1021.872009 
	C1101.136963,1022.376160 1120.654175,1022.328491 1140.143188,1021.884338 
	C1160.165283,1021.428162 1176.486450,1006.384216 1178.621094,986.742004 
	C1179.373657,979.817749 1178.984009,972.758118 1178.937622,965.761475 
	C1178.887939,958.288696 1175.960449,954.655212 1168.547852,953.525391 
	C1165.171509,953.010742 1161.541016,953.151733 1158.176392,953.789795 
	C1151.781250,955.002563 1149.155762,958.442200 1149.012573,964.941650 
	C1148.898804,970.105896 1149.135254,975.282104 1148.898560,980.438416 
	C1148.457642,990.046021 1143.507568,996.078613 1134.428223,996.322144 
	C1118.287354,996.755127 1102.122803,996.307739 1085.082275,996.101196 
M1222.425903,931.820435 
	C1221.139282,935.770630 1219.864136,939.724609 1218.564087,943.670410 
	C1211.857544,964.025452 1205.171753,984.387451 1198.414917,1004.725830 
	C1196.688599,1009.922485 1196.024780,1014.808105 1200.774902,1018.892944 
	C1211.716187,1028.301636 1223.500610,1025.143311 1227.914062,1011.578369 
	C1241.998901,968.289368 1256.063477,924.993774 1270.157593,881.707825 
	C1273.813477,870.480103 1277.549561,859.278503 1281.584961,847.045837 
	C1282.348022,849.042236 1282.733765,849.938049 1283.036865,850.861145 
	C1291.017822,875.170593 1298.995605,899.481018 1306.962402,923.795105 
	C1316.843262,953.949951 1326.637695,984.133362 1336.633545,1014.250000 
	C1339.732788,1023.587830 1345.622803,1025.962158 1355.604858,1022.537048 
	C1364.990112,1019.316650 1367.907471,1014.042725 1364.944092,1004.979797 
	C1346.355957,948.130066 1327.764160,891.281494 1309.002441,834.488953 
	C1306.625000,827.292358 1301.803711,821.920349 1293.538940,821.705872 
	C1285.090698,821.486511 1276.617188,821.642090 1268.173462,822.035828 
	C1261.443237,822.349731 1257.155151,826.319336 1255.086548,832.603943 
	C1244.282959,865.426575 1233.526123,898.264587 1222.425903,931.820435 
M651.194458,846.581482 
	C641.296875,876.733704 631.403320,906.887268 621.500610,937.037781 
	C613.983765,959.924377 606.466675,982.810852 598.922546,1005.688477 
	C597.296448,1010.619873 597.189636,1015.180664 601.549255,1018.901917 
	C612.564453,1028.304565 624.255493,1025.167114 628.683899,1011.562683 
	C643.854553,964.956787 658.992554,918.340271 674.162476,871.734131 
	C676.746582,863.795288 679.426147,855.887512 682.398193,846.953430 
	C683.233887,849.327942 683.693787,850.559875 684.102905,851.808472 
	C694.086060,882.280518 704.062256,912.754883 714.043335,943.227661 
	C721.696777,966.594116 729.367126,989.955078 737.001221,1013.327881 
	C738.505310,1017.932861 740.606445,1022.351746 745.630432,1023.515198 
	C752.374634,1025.076904 758.551270,1022.778870 763.652710,1018.351685 
	C768.314392,1014.306152 767.305786,1009.142456 765.378906,1004.056702 
	C764.849731,1002.660156 764.472229,1001.206848 764.006409,999.785645 
	C746.050598,945.000183 728.113586,890.208496 710.111633,835.438232 
	C707.533203,827.593201 702.710327,821.856812 693.817139,821.633850 
	C685.367737,821.421997 676.887573,821.609070 668.448425,822.096313 
	C662.181091,822.458130 658.084351,826.232910 656.040649,832.124329 
	C654.461609,836.676575 653.012085,841.273865 651.194458,846.581482 
M332.129639,907.500061 
	C332.129639,887.546021 332.129639,867.591980 332.129639,847.260315 
	C334.631897,847.260315 336.611755,847.255371 338.591614,847.261047 
	C354.920837,847.308167 371.261597,847.007507 387.574646,847.545959 
	C396.399445,847.837097 401.830048,854.032227 401.984894,862.986877 
	C402.235535,877.480469 402.247681,891.984741 401.993835,906.478088 
	C401.822784,916.242004 395.980347,921.898071 386.250732,922.152161 
	C378.090363,922.365356 369.920715,922.222656 361.755188,922.242493 
	C350.204987,922.270508 345.274109,928.913452 348.375916,940.261475 
	C349.805481,945.491577 352.574005,947.762817 358.075439,947.800354 
	C369.407135,947.877563 380.744843,948.039917 392.070862,947.774414 
	C412.454926,947.296570 429.685455,933.344788 431.210938,913.663269 
	C432.698975,894.464417 431.551300,875.059143 431.473633,855.744873 
	C431.466431,853.948486 430.937042,852.126953 430.472534,850.363892 
	C426.240967,834.302246 409.914917,822.129700 391.798889,821.978455 
	C368.302826,821.782288 344.804016,821.913208 321.306366,821.918762 
	C305.898132,821.922363 302.457642,825.346558 302.456024,840.681946 
	C302.450104,896.343201 302.448944,952.004395 302.469543,1007.665649 
	C302.470398,1009.991943 302.285187,1012.447449 302.948944,1014.608704 
	C303.644257,1016.872925 304.756348,1019.595459 306.565033,1020.824463 
	C312.683197,1024.981812 319.492706,1024.747070 326.116760,1022.032593 
	C331.964539,1019.636169 332.159271,1014.346802 332.152069,1008.990234 
	C332.107056,975.493591 332.129517,941.996826 332.129639,907.500061 
M1478.084351,873.538208 
	C1467.946533,906.568115 1457.808716,939.598022 1447.430786,973.410400 
	C1446.632568,971.202454 1446.024048,969.694031 1445.537598,968.147156 
	C1440.353271,951.662170 1435.144653,935.184631 1430.027710,918.678650 
	C1420.974487,889.474548 1412.103882,860.212769 1402.804810,831.087463 
	C1401.640747,827.441406 1399.042725,822.990845 1395.888428,821.505920 
	C1389.370117,818.437378 1382.861450,821.037598 1377.373779,825.430359 
	C1372.252563,829.530029 1372.723755,834.669556 1374.494873,840.381531 
	C1392.211182,897.518066 1409.834106,954.683716 1427.339966,1011.885071 
	C1428.939453,1017.111755 1432.037231,1020.558228 1437.128418,1021.355591 
	C1442.798828,1022.243591 1448.640503,1022.434509 1454.392944,1022.301025 
	C1461.498779,1022.136230 1465.077759,1017.887085 1467.097900,1011.125977 
	C1475.708252,982.309875 1484.680908,953.601807 1493.552124,924.863892 
	C1502.276245,896.602478 1511.046631,868.355347 1519.773315,840.094788 
	C1521.171631,835.566467 1522.435059,830.823914 1518.939453,826.781311 
	C1514.185669,821.283691 1507.613403,819.963684 1500.776978,820.597473 
	C1494.574951,821.172424 1492.683838,826.247437 1491.114380,831.335144 
	C1486.853271,845.148621 1482.578613,858.957825 1478.084351,873.538208 
M1081.377197,666.499756 
	C1081.377197,671.998779 1081.376831,677.497803 1081.377319,682.996826 
	C1081.378540,700.327209 1081.277832,717.658447 1081.417480,734.987671 
	C1081.511108,746.603455 1086.254761,751.736816 1097.136475,751.781250 
	C1127.630737,751.905823 1158.126343,751.892334 1188.619995,751.703186 
	C1191.209595,751.687134 1194.672852,750.699524 1196.203491,748.879272 
	C1200.463257,743.813660 1199.714355,737.608276 1197.742920,731.794373 
	C1195.976807,726.585632 1191.339600,726.209351 1186.618164,726.218872 
	C1163.288818,726.265991 1139.959351,726.240356 1116.630005,726.240356 
	C1114.877686,726.240356 1113.125488,726.240295 1111.373779,726.240295 
	C1111.373779,676.136414 1111.373779,626.732788 1111.373779,577.006592 
	C1113.452026,577.006592 1115.256592,577.006592 1117.061279,577.006592 
	C1139.224121,577.006531 1161.387939,577.095337 1183.548950,576.894897 
	C1186.340942,576.869690 1190.032959,576.163147 1191.727539,574.319702 
	C1196.258789,569.390076 1195.323853,563.226013 1193.369141,557.354126 
	C1191.691406,552.314270 1187.531128,551.616638 1182.896118,551.626587 
	C1157.233887,551.681458 1131.571533,551.647888 1105.909180,551.658142 
	C1102.244385,551.659607 1098.570923,551.589539 1094.916382,551.804871 
	C1086.809692,552.282471 1082.871704,555.959595 1081.753540,564.041321 
	C1081.435669,566.339478 1081.393921,568.689453 1081.392212,571.015747 
	C1081.370117,602.510376 1081.377197,634.005066 1081.377197,666.499756 
M1545.040039,1009.895691 
	C1547.571289,1018.895630 1550.770386,1021.919861 1559.088013,1021.953613 
	C1590.243896,1022.080078 1621.400757,1022.078735 1652.556030,1021.902893 
	C1654.959717,1021.889343 1658.208862,1020.826355 1659.591431,1019.082703 
	C1663.686890,1013.918091 1662.850464,1007.770874 1660.950684,1001.960266 
	C1659.281006,996.853088 1654.786011,996.636841 1650.266968,996.645264 
	C1626.941284,996.688660 1603.615479,996.665405 1580.289795,996.665405 
	C1578.510376,996.665405 1576.730835,996.665344 1574.794800,996.665344 
	C1574.794800,946.573303 1574.794800,897.040405 1574.794800,847.251038 
	C1576.992920,847.251038 1578.813721,847.251099 1580.634399,847.251038 
	C1602.627197,847.250427 1624.620117,847.292786 1646.612671,847.227112 
	C1654.926147,847.202332 1658.045776,844.002869 1657.972900,835.668762 
	C1657.951416,833.206421 1657.614014,830.668457 1656.929932,828.307617 
	C1655.738525,824.195190 1652.848633,821.952759 1648.445557,821.953430 
	C1618.455811,821.958130 1588.465454,821.881958 1558.476440,822.036743 
	C1550.238037,822.079224 1545.588257,826.857727 1544.969727,835.069336 
	C1544.782471,837.556335 1544.848755,840.064575 1544.850220,842.563110 
	C1544.885010,898.044067 1544.926880,953.525085 1545.040039,1009.895691 
M832.377502,625.500488 
	C832.377502,609.425537 832.377502,593.350586 832.377502,577.004761 
	C846.986938,577.004761 860.970764,577.134460 874.947998,576.888428 
	C877.552734,576.842590 881.105835,576.068787 882.536987,574.281982 
	C886.701172,569.082886 886.354980,562.700134 884.427551,556.689453 
	C882.669556,551.207275 877.667114,551.649536 873.118408,551.650879 
	C841.455444,551.660278 809.792419,551.654602 778.129456,551.656616 
	C771.630310,551.657043 765.094849,551.273071 758.649048,551.863281 
	C755.883667,552.116516 752.212524,553.727356 750.858582,555.905701 
	C747.605713,561.139465 748.178040,567.095825 750.857056,572.622986 
	C753.201904,577.460876 757.783875,577.026611 762.153198,577.016235 
	C775.449524,576.984680 788.745972,577.004822 802.413818,577.004822 
	C802.413818,579.403442 802.413879,581.363037 802.413879,583.322632 
	C802.413940,634.650024 802.407166,685.977417 802.434448,737.304810 
	C802.435730,739.794128 802.143799,742.529297 803.049805,744.708740 
	C804.123169,747.290588 805.856873,750.284668 808.157410,751.555176 
	C820.595825,758.423889 832.370850,751.433105 832.374207,737.487671 
	C832.383057,700.491943 832.377380,663.496277 832.377502,625.500488 
M470.105743,923.500000 
	C470.105743,924.666443 470.105743,925.832825 470.105774,926.999268 
	C470.106232,953.160706 470.055573,979.322327 470.131866,1005.483582 
	C470.163361,1016.286377 474.951691,1021.906799 484.573639,1021.949707 
	C517.566345,1022.096863 550.560242,1022.069885 583.552795,1021.919312 
	C585.817932,1021.908997 588.867859,1020.985657 590.192017,1019.371094 
	C594.530579,1014.080627 593.689148,1007.766418 591.805542,1001.791260 
	C590.173096,996.612854 585.533630,996.635742 581.058228,996.642395 
	C555.896545,996.679810 530.734924,996.660339 505.573242,996.660339 
	C503.793396,996.660339 502.013550,996.660339 499.944641,996.660339 
	C499.944641,994.250061 499.944641,992.433228 499.944641,990.616394 
	C499.944641,966.287903 499.944794,941.959351 499.944641,917.630859 
	C499.944489,889.969666 500.082764,862.307007 499.776459,834.649170 
	C499.736023,830.998596 498.472870,826.167053 495.954346,823.982300 
	C490.376251,819.143066 483.142487,819.796631 476.532959,822.189148 
	C470.438568,824.395142 470.083374,829.970764 470.089966,835.517273 
	C470.124451,864.511536 470.105865,893.505737 470.105743,923.500000 
M1044.377563,624.500488 
	C1044.377563,618.168945 1044.378296,611.837341 1044.377563,605.505798 
	C1044.375854,591.509705 1044.376587,577.513672 1044.369629,563.517578 
	C1044.367432,559.010498 1043.594238,554.900146 1039.175659,552.402771 
	C1026.676270,545.338318 1014.446594,552.208130 1014.444885,566.352722 
	C1014.438110,623.170166 1014.436035,679.987610 1014.461609,736.805054 
	C1014.462769,739.294983 1014.152832,742.036011 1015.063599,744.209351 
	C1016.141541,746.781860 1017.905396,749.733521 1020.209412,751.014465 
	C1032.591187,757.898071 1044.372681,750.901367 1044.375244,736.969360 
	C1044.381836,699.813110 1044.377563,662.656799 1044.377563,624.500488 
M937.959290,719.500000 
	C937.959290,711.167603 937.959290,702.835266 937.959290,694.502869 
	C937.959045,651.174622 938.035034,607.846008 937.817017,564.518860 
	C937.799133,560.971619 936.826904,556.314087 934.478760,554.116333 
	C928.880920,548.877014 921.606079,549.394348 914.720825,551.778198 
	C908.550415,553.914429 907.931946,559.202576 907.944275,564.846985 
	C908.010986,595.343262 907.975525,625.839783 907.975586,656.336182 
	C907.975708,684.166260 907.953003,711.996338 907.990906,739.826355 
	C908.001892,747.875366 911.156067,751.711548 918.848816,752.720703 
	C921.776367,753.104736 924.878479,753.032532 927.786377,752.518982 
	C934.845337,751.272400 937.800232,747.667664 937.926758,740.497192 
	C938.044312,733.833313 937.956665,727.165894 937.959290,719.500000 
M1614.250732,938.330933 
	C1626.492188,939.945190 1636.761230,932.728149 1638.730225,921.126770 
	C1640.593506,910.147827 1632.930420,899.270569 1621.879150,897.207336 
	C1610.608643,895.103271 1600.066040,902.105896 1597.578247,913.348633 
	C1595.062012,924.719788 1601.706665,935.121399 1614.250732,938.330933 
M996.634521,650.898376 
	C998.002441,634.385803 984.505676,622.782166 969.564575,627.625427 
	C960.252930,630.643799 954.189514,640.055664 955.360840,649.673157 
	C956.621155,660.020813 964.334656,667.590271 974.286011,668.244873 
	C985.395386,668.975647 993.622253,662.830872 996.634521,650.898376 
M1171.557739,659.955444 
	C1177.569946,650.461487 1176.891479,640.335876 1169.754639,633.045166 
	C1162.866455,626.008423 1151.859131,624.516907 1143.728271,629.648499 
	C1136.056519,634.490234 1132.941162,641.656921 1134.066162,650.494507 
	C1135.122559,658.793823 1139.835815,664.663818 1147.779053,667.200317 
	C1156.823242,670.088440 1164.798950,667.909180 1171.557739,659.955444 
M1298.656006,969.920715 
	C1302.468750,959.769226 1300.013428,950.701355 1291.969727,945.227783 
	C1284.910767,940.424194 1275.134033,940.888794 1268.863159,946.491272 
	C1262.738159,951.963257 1260.553589,958.795105 1262.820068,966.734070 
	C1265.089966,974.684814 1270.526611,979.492859 1278.695435,980.544189 
	C1287.303345,981.651917 1293.817871,977.981506 1298.656006,969.920715 
M664.186890,968.936462 
	C669.830078,979.465576 679.627136,983.418823 689.566101,979.177307 
	C698.695984,975.280884 703.406067,965.088135 700.463196,955.595581 
	C697.295654,945.378357 686.476196,939.693604 676.208435,942.851624 
	C665.698853,946.083984 660.590393,956.644104 664.186890,968.936462 
z"/>
<path fill="#FFFFFF" opacity="1.000000" stroke="none" 
	d="
M1396.813232,765.999878 
	C1396.813232,729.215271 1396.813232,692.930664 1396.813232,656.386841 
	C1369.264771,656.386841 1342.200684,656.386841 1314.734985,656.386841 
	C1314.734985,704.556213 1314.734985,752.483582 1314.734985,800.722778 
	C1281.614136,800.722778 1248.893188,800.722778 1215.929077,800.722778 
	C1215.929077,722.255249 1215.929077,643.862244 1215.929077,565.234192 
	C1367.639160,565.234192 1519.238770,565.234192 1671.136963,565.234192 
	C1671.136963,643.637817 1671.136963,722.047241 1671.136963,800.746826 
	C1579.873535,800.746826 1488.647095,800.746826 1396.813232,800.746826 
	C1396.813232,789.347839 1396.813232,777.923889 1396.813232,765.999878 
M1469.081299,629.500000 
	C1469.081299,647.271179 1469.081299,665.042419 1469.081299,682.894836 
	C1492.909180,682.894836 1516.256592,682.894836 1539.549805,682.894836 
	C1539.549805,654.494385 1539.549805,626.454651 1539.549805,598.387207 
	C1515.974365,598.387207 1492.741333,598.387207 1469.081299,598.387207 
	C1469.081299,608.598083 1469.081299,618.549011 1469.081299,629.500000 
M1599.499878,683.250732 
	C1610.261353,683.250732 1621.022949,683.250732 1631.859375,683.250732 
	C1631.859375,654.643616 1631.859375,626.587952 1631.859375,598.409851 
	C1608.366577,598.409851 1585.140259,598.409851 1561.836670,598.409851 
	C1561.836670,626.752380 1561.836670,654.808533 1561.836670,683.250732 
	C1574.250977,683.250732 1586.375366,683.250732 1599.499878,683.250732 
z"/>
<path fill="#FDFDFE" opacity="1.000000" stroke="none" 
	d="
M1175.027344,500.245117 
	C1259.490112,500.245117 1343.456543,500.245117 1428.001831,500.245117 
	C1428.001831,472.563934 1428.001831,445.025879 1428.001831,417.268494 
	C1482.632568,417.268494 1536.684204,417.268494 1591.154297,417.268494 
	C1591.154297,444.911041 1591.154297,472.321167 1591.154297,500.103394 
	C1635.662720,500.103394 1679.755493,500.103394 1724.243408,500.103394 
	C1724.243408,514.702332 1724.243408,528.930603 1724.243408,543.521118 
	C1537.639282,543.521118 1350.990479,543.521118 1164.047852,543.521118 
	C1164.047852,529.256226 1164.047852,515.024719 1164.047852,500.245117 
	C1167.624634,500.245117 1171.077881,500.245117 1175.027344,500.245117 
z"/>
<path fill="#FDFDFD" opacity="1.000000" stroke="none" 
	d="
M788.951355,855.000000 
	C788.955566,848.834717 788.884460,843.168152 788.982605,837.504395 
	C789.109497,830.181396 791.997192,826.150696 798.926758,823.610840 
	C807.244141,820.562256 815.717896,819.835327 824.430969,821.859131 
	C832.230530,823.670776 837.145203,828.342285 840.081360,835.751709 
	C856.970215,878.371338 873.998169,920.935791 890.983215,963.517334 
	C891.772583,965.496338 892.602905,967.458984 893.485535,969.602661 
	C895.872375,969.314453 897.965332,969.061707 900.449463,968.761719 
	C900.449463,966.748413 900.449524,964.957275 900.449524,963.166138 
	C900.449585,921.009155 900.444275,878.852234 900.452576,836.695251 
	C900.455261,822.840088 911.733765,815.861267 924.153137,822.483765 
	C926.778992,823.884155 928.326843,827.635681 929.882874,830.563538 
	C930.582458,831.879822 930.117676,833.834839 930.117859,835.500061 
	C930.124390,891.487183 930.126038,947.474243 930.120422,1003.461365 
	C930.119446,1013.135254 927.640625,1017.254333 918.408020,1020.078491 
	C912.784729,1021.798584 906.678894,1022.949768 900.844666,1022.750183 
	C890.488342,1022.395874 882.929565,1017.715637 878.799866,1007.203186 
	C862.099670,964.690979 844.916992,922.368347 827.904297,879.979065 
	C827.229980,878.298828 826.472046,876.652161 825.668640,874.794678 
	C823.625488,874.894592 821.656799,874.990906 818.937744,875.123840 
	C818.937744,876.930725 818.937683,878.685181 818.937683,880.439575 
	C818.937683,922.929810 818.924072,965.419983 818.954529,1007.910217 
	C818.958496,1013.403076 818.877380,1019.043274 812.890137,1021.486206 
	C806.347046,1024.156006 799.193359,1024.782959 793.357178,1020.374390 
	C790.834106,1018.468384 789.214722,1013.874084 789.144348,1010.460571 
	C788.749512,991.306458 788.951782,972.139954 788.951538,952.977722 
	C788.950989,920.485168 788.951355,887.992554 788.951355,855.000000 
z"/>
<path fill="#FEFEFE" opacity="1.000000" stroke="none" 
	d="
M1085.525146,996.164917 
	C1102.122803,996.307739 1118.287354,996.755127 1134.428223,996.322144 
	C1143.507568,996.078613 1148.457642,990.046021 1148.898560,980.438416 
	C1149.135254,975.282104 1148.898804,970.105896 1149.012573,964.941650 
	C1149.155762,958.442200 1151.781250,955.002563 1158.176392,953.789795 
	C1161.541016,953.151733 1165.171509,953.010742 1168.547852,953.525391 
	C1175.960449,954.655212 1178.887939,958.288696 1178.937622,965.761475 
	C1178.984009,972.758118 1179.373657,979.817749 1178.621094,986.742004 
	C1176.486450,1006.384216 1160.165283,1021.428162 1140.143188,1021.884338 
	C1120.654175,1022.328491 1101.136963,1022.376160 1081.650757,1021.872009 
	C1059.716797,1021.304443 1043.115967,1004.017761 1043.036011,982.105957 
	C1042.889404,941.940552 1043.067017,901.774109 1042.968628,861.608398 
	C1042.909668,837.563354 1059.770142,823.894287 1081.732422,822.285400 
	C1101.127441,820.864624 1120.797729,820.816895 1140.184204,822.294067 
	C1162.475098,823.992615 1178.969604,837.565125 1178.957520,861.604919 
	C1178.954468,867.604675 1179.086548,873.608826 1178.900635,879.603027 
	C1178.699463,886.085266 1175.374756,889.978210 1169.055542,890.828857 
	C1165.627686,891.290283 1162.031616,891.297607 1158.607910,890.819092 
	C1152.522949,889.968628 1149.251343,886.075500 1149.045410,879.900757 
	C1148.878906,874.906128 1149.051025,869.901245 1148.968750,864.902588 
	C1148.775513,853.153442 1143.024170,847.337402 1131.401001,847.272888 
	C1117.735107,847.197021 1104.067871,847.190735 1090.401978,847.273865 
	C1078.971191,847.343445 1073.035034,853.114685 1073.008789,864.514282 
	C1072.920288,902.846680 1072.932861,941.179504 1073.009277,979.511963 
	C1073.027344,988.601013 1077.156616,994.007629 1085.525146,996.164917 
z"/>
<path fill="#FDFDFD" opacity="1.000000" stroke="none" 
	d="
M1222.589600,931.458862 
	C1233.526123,898.264587 1244.282959,865.426575 1255.086548,832.603943 
	C1257.155151,826.319336 1261.443237,822.349731 1268.173462,822.035828 
	C1276.617188,821.642090 1285.090698,821.486511 1293.538940,821.705872 
	C1301.803711,821.920349 1306.625000,827.292358 1309.002441,834.488953 
	C1327.764160,891.281494 1346.355957,948.130066 1364.944092,1004.979797 
	C1367.907471,1014.042725 1364.990112,1019.316650 1355.604858,1022.537048 
	C1345.622803,1025.962158 1339.732788,1023.587830 1336.633545,1014.250000 
	C1326.637695,984.133362 1316.843262,953.949951 1306.962402,923.795105 
	C1298.995605,899.481018 1291.017822,875.170593 1283.036865,850.861145 
	C1282.733765,849.938049 1282.348022,849.042236 1281.584961,847.045837 
	C1277.549561,859.278503 1273.813477,870.480103 1270.157593,881.707825 
	C1256.063477,924.993774 1241.998901,968.289368 1227.914062,1011.578369 
	C1223.500610,1025.143311 1211.716187,1028.301636 1200.774902,1018.892944 
	C1196.024780,1014.808105 1196.688599,1009.922485 1198.414917,1004.725830 
	C1205.171753,984.387451 1211.857544,964.025452 1218.564087,943.670410 
	C1219.864136,939.724609 1221.139282,935.770630 1222.589600,931.458862 
z"/>
<path fill="#FDFDFD" opacity="1.000000" stroke="none" 
	d="
M651.349731,846.216309 
	C653.012085,841.273865 654.461609,836.676575 656.040649,832.124329 
	C658.084351,826.232910 662.181091,822.458130 668.448425,822.096313 
	C676.887573,821.609070 685.367737,821.421997 693.817139,821.633850 
	C702.710327,821.856812 707.533203,827.593201 710.111633,835.438232 
	C728.113586,890.208496 746.050598,945.000183 764.006409,999.785645 
	C764.472229,1001.206848 764.849731,1002.660156 765.378906,1004.056702 
	C767.305786,1009.142456 768.314392,1014.306152 763.652710,1018.351685 
	C758.551270,1022.778870 752.374634,1025.076904 745.630432,1023.515198 
	C740.606445,1022.351746 738.505310,1017.932861 737.001221,1013.327881 
	C729.367126,989.955078 721.696777,966.594116 714.043335,943.227661 
	C704.062256,912.754883 694.086060,882.280518 684.102905,851.808472 
	C683.693787,850.559875 683.233887,849.327942 682.398193,846.953430 
	C679.426147,855.887512 676.746582,863.795288 674.162476,871.734131 
	C658.992554,918.340271 643.854553,964.956787 628.683899,1011.562683 
	C624.255493,1025.167114 612.564453,1028.304565 601.549255,1018.901917 
	C597.189636,1015.180664 597.296448,1010.619873 598.922546,1005.688477 
	C606.466675,982.810852 613.983765,959.924377 621.500610,937.037781 
	C631.403320,906.887268 641.296875,876.733704 651.349731,846.216309 
z"/>
<path fill="#FCFCFD" opacity="1.000000" stroke="none" 
	d="
M332.129639,908.000122 
	C332.129517,941.996826 332.107056,975.493591 332.152069,1008.990234 
	C332.159271,1014.346802 331.964539,1019.636169 326.116760,1022.032593 
	C319.492706,1024.747070 312.683197,1024.981812 306.565033,1020.824463 
	C304.756348,1019.595459 303.644257,1016.872925 302.948944,1014.608704 
	C302.285187,1012.447449 302.470398,1009.991943 302.469543,1007.665649 
	C302.448944,952.004395 302.450104,896.343201 302.456024,840.681946 
	C302.457642,825.346558 305.898132,821.922363 321.306366,821.918762 
	C344.804016,821.913208 368.302826,821.782288 391.798889,821.978455 
	C409.914917,822.129700 426.240967,834.302246 430.472534,850.363892 
	C430.937042,852.126953 431.466431,853.948486 431.473633,855.744873 
	C431.551300,875.059143 432.698975,894.464417 431.210938,913.663269 
	C429.685455,933.344788 412.454926,947.296570 392.070862,947.774414 
	C380.744843,948.039917 369.407135,947.877563 358.075439,947.800354 
	C352.574005,947.762817 349.805481,945.491577 348.375916,940.261475 
	C345.274109,928.913452 350.204987,922.270508 361.755188,922.242493 
	C369.920715,922.222656 378.090363,922.365356 386.250732,922.152161 
	C395.980347,921.898071 401.822784,916.242004 401.993835,906.478088 
	C402.247681,891.984741 402.235535,877.480469 401.984894,862.986877 
	C401.830048,854.032227 396.399445,847.837097 387.574646,847.545959 
	C371.261597,847.007507 354.920837,847.308167 338.591614,847.261047 
	C336.611755,847.255371 334.631897,847.260315 332.129639,847.260315 
	C332.129639,867.591980 332.129639,887.546021 332.129639,908.000122 
z"/>
<path fill="#FDFDFD" opacity="1.000000" stroke="none" 
	d="
M1478.196899,873.153442 
	C1482.578613,858.957825 1486.853271,845.148621 1491.114380,831.335144 
	C1492.683838,826.247437 1494.574951,821.172424 1500.776978,820.597473 
	C1507.613403,819.963684 1514.185669,821.283691 1518.939453,826.781311 
	C1522.435059,830.823914 1521.171631,835.566467 1519.773315,840.094788 
	C1511.046631,868.355347 1502.276245,896.602478 1493.552124,924.863892 
	C1484.680908,953.601807 1475.708252,982.309875 1467.097900,1011.125977 
	C1465.077759,1017.887085 1461.498779,1022.136230 1454.392944,1022.301025 
	C1448.640503,1022.434509 1442.798828,1022.243591 1437.128418,1021.355591 
	C1432.037231,1020.558228 1428.939453,1017.111755 1427.339966,1011.885071 
	C1409.834106,954.683716 1392.211182,897.518066 1374.494873,840.381531 
	C1372.723755,834.669556 1372.252563,829.530029 1377.373779,825.430359 
	C1382.861450,821.037598 1389.370117,818.437378 1395.888428,821.505920 
	C1399.042725,822.990845 1401.640747,827.441406 1402.804810,831.087463 
	C1412.103882,860.212769 1420.974487,889.474548 1430.027710,918.678650 
	C1435.144653,935.184631 1440.353271,951.662170 1445.537598,968.147156 
	C1446.024048,969.694031 1446.632568,971.202454 1447.430786,973.410400 
	C1457.808716,939.598022 1467.946533,906.568115 1478.196899,873.153442 
z"/>
<path fill="#FBFCFC" opacity="1.000000" stroke="none" 
	d="
M1081.377197,665.999756 
	C1081.377197,634.005066 1081.370117,602.510376 1081.392212,571.015747 
	C1081.393921,568.689453 1081.435669,566.339478 1081.753540,564.041321 
	C1082.871704,555.959595 1086.809692,552.282471 1094.916382,551.804871 
	C1098.570923,551.589539 1102.244385,551.659607 1105.909180,551.658142 
	C1131.571533,551.647888 1157.233887,551.681458 1182.896118,551.626587 
	C1187.531128,551.616638 1191.691406,552.314270 1193.369141,557.354126 
	C1195.323853,563.226013 1196.258789,569.390076 1191.727539,574.319702 
	C1190.032959,576.163147 1186.340942,576.869690 1183.548950,576.894897 
	C1161.387939,577.095337 1139.224121,577.006531 1117.061279,577.006592 
	C1115.256592,577.006592 1113.452026,577.006592 1111.373779,577.006592 
	C1111.373779,626.732788 1111.373779,676.136414 1111.373779,726.240295 
	C1113.125488,726.240295 1114.877686,726.240356 1116.630005,726.240356 
	C1139.959351,726.240356 1163.288818,726.265991 1186.618164,726.218872 
	C1191.339600,726.209351 1195.976807,726.585632 1197.742920,731.794373 
	C1199.714355,737.608276 1200.463257,743.813660 1196.203491,748.879272 
	C1194.672852,750.699524 1191.209595,751.687134 1188.619995,751.703186 
	C1158.126343,751.892334 1127.630737,751.905823 1097.136475,751.781250 
	C1086.254761,751.736816 1081.511108,746.603455 1081.417480,734.987671 
	C1081.277832,717.658447 1081.378540,700.327209 1081.377319,682.996826 
	C1081.376831,677.497803 1081.377197,671.998779 1081.377197,665.999756 
z"/>
<path fill="#FFFFFF" opacity="1.000000" stroke="none" 
	d="
M1545.003784,1009.450867 
	C1544.926880,953.525085 1544.885010,898.044067 1544.850220,842.563110 
	C1544.848755,840.064575 1544.782471,837.556335 1544.969727,835.069336 
	C1545.588257,826.857727 1550.238037,822.079224 1558.476440,822.036743 
	C1588.465454,821.881958 1618.455811,821.958130 1648.445557,821.953430 
	C1652.848633,821.952759 1655.738525,824.195190 1656.929932,828.307617 
	C1657.614014,830.668457 1657.951416,833.206421 1657.972900,835.668762 
	C1658.045776,844.002869 1654.926147,847.202332 1646.612671,847.227112 
	C1624.620117,847.292786 1602.627197,847.250427 1580.634399,847.251038 
	C1578.813721,847.251099 1576.992920,847.251038 1574.794800,847.251038 
	C1574.794800,897.040405 1574.794800,946.573303 1574.794800,996.665344 
	C1576.730835,996.665344 1578.510376,996.665405 1580.289795,996.665405 
	C1603.615479,996.665405 1626.941284,996.688660 1650.266968,996.645264 
	C1654.786011,996.636841 1659.281006,996.853088 1660.950684,1001.960266 
	C1662.850464,1007.770874 1663.686890,1013.918091 1659.591431,1019.082703 
	C1658.208862,1020.826355 1654.959717,1021.889343 1652.556030,1021.902893 
	C1621.400757,1022.078735 1590.243896,1022.080078 1559.088013,1021.953613 
	C1550.770386,1021.919861 1547.571289,1018.895630 1545.003784,1009.450867 
z"/>
<path fill="#FCFDFD" opacity="1.000000" stroke="none" 
	d="
M832.377441,626.000488 
	C832.377380,663.496277 832.383057,700.491943 832.374207,737.487671 
	C832.370850,751.433105 820.595825,758.423889 808.157410,751.555176 
	C805.856873,750.284668 804.123169,747.290588 803.049805,744.708740 
	C802.143799,742.529297 802.435730,739.794128 802.434448,737.304810 
	C802.407166,685.977417 802.413940,634.650024 802.413879,583.322632 
	C802.413879,581.363037 802.413818,579.403442 802.413818,577.004822 
	C788.745972,577.004822 775.449524,576.984680 762.153198,577.016235 
	C757.783875,577.026611 753.201904,577.460876 750.857056,572.622986 
	C748.178040,567.095825 747.605713,561.139465 750.858582,555.905701 
	C752.212524,553.727356 755.883667,552.116516 758.649048,551.863281 
	C765.094849,551.273071 771.630310,551.657043 778.129456,551.656616 
	C809.792419,551.654602 841.455444,551.660278 873.118408,551.650879 
	C877.667114,551.649536 882.669556,551.207275 884.427551,556.689453 
	C886.354980,562.700134 886.701172,569.082886 882.536987,574.281982 
	C881.105835,576.068787 877.552734,576.842590 874.947998,576.888428 
	C860.970764,577.134460 846.986938,577.004761 832.377502,577.004761 
	C832.377502,593.350586 832.377502,609.425537 832.377441,626.000488 
z"/>
<path fill="#FDFDFE" opacity="1.000000" stroke="none" 
	d="
M470.105743,923.000000 
	C470.105865,893.505737 470.124451,864.511536 470.089966,835.517273 
	C470.083374,829.970764 470.438568,824.395142 476.532959,822.189148 
	C483.142487,819.796631 490.376251,819.143066 495.954346,823.982300 
	C498.472870,826.167053 499.736023,830.998596 499.776459,834.649170 
	C500.082764,862.307007 499.944489,889.969666 499.944641,917.630859 
	C499.944794,941.959351 499.944641,966.287903 499.944641,990.616394 
	C499.944641,992.433228 499.944641,994.250061 499.944641,996.660339 
	C502.013550,996.660339 503.793396,996.660339 505.573242,996.660339 
	C530.734924,996.660339 555.896545,996.679810 581.058228,996.642395 
	C585.533630,996.635742 590.173096,996.612854 591.805542,1001.791260 
	C593.689148,1007.766418 594.530579,1014.080627 590.192017,1019.371094 
	C588.867859,1020.985657 585.817932,1021.908997 583.552795,1021.919312 
	C550.560242,1022.069885 517.566345,1022.096863 484.573639,1021.949707 
	C474.951691,1021.906799 470.163361,1016.286377 470.131866,1005.483582 
	C470.055573,979.322327 470.106232,953.160706 470.105774,926.999268 
	C470.105743,925.832825 470.105743,924.666443 470.105743,923.000000 
z"/>
<path fill="#FBFBFC" opacity="1.000000" stroke="none" 
	d="
M1044.377563,625.000488 
	C1044.377563,662.656799 1044.381836,699.813110 1044.375244,736.969360 
	C1044.372681,750.901367 1032.591187,757.898071 1020.209412,751.014465 
	C1017.905396,749.733521 1016.141541,746.781860 1015.063599,744.209351 
	C1014.152832,742.036011 1014.462769,739.294983 1014.461609,736.805054 
	C1014.436035,679.987610 1014.438110,623.170166 1014.444885,566.352722 
	C1014.446594,552.208130 1026.676270,545.338318 1039.175659,552.402771 
	C1043.594238,554.900146 1044.367432,559.010498 1044.369629,563.517578 
	C1044.376587,577.513672 1044.375854,591.509705 1044.377563,605.505798 
	C1044.378296,611.837341 1044.377563,618.168945 1044.377563,625.000488 
z"/>
<path fill="#FEFEFE" opacity="1.000000" stroke="none" 
	d="
M937.959290,720.000000 
	C937.956665,727.165894 938.044312,733.833313 937.926758,740.497192 
	C937.800232,747.667664 934.845337,751.272400 927.786377,752.518982 
	C924.878479,753.032532 921.776367,753.104736 918.848816,752.720703 
	C911.156067,751.711548 908.001892,747.875366 907.990906,739.826355 
	C907.953003,711.996338 907.975708,684.166260 907.975586,656.336182 
	C907.975525,625.839783 908.010986,595.343262 907.944275,564.846985 
	C907.931946,559.202576 908.550415,553.914429 914.720825,551.778198 
	C921.606079,549.394348 928.880920,548.877014 934.478760,554.116333 
	C936.826904,556.314087 937.799133,560.971619 937.817017,564.518860 
	C938.035034,607.846008 937.959045,651.174622 937.959290,694.502869 
	C937.959290,702.835266 937.959290,711.167603 937.959290,720.000000 
z"/>
<path fill="#FCFCFD" opacity="1.000000" stroke="none" 
	d="
M1613.845703,938.255371 
	C1601.706665,935.121399 1595.062012,924.719788 1597.578247,913.348633 
	C1600.066040,902.105896 1610.608643,895.103271 1621.879150,897.207336 
	C1632.930420,899.270569 1640.593506,910.147827 1638.730225,921.126770 
	C1636.761230,932.728149 1626.492188,939.945190 1613.845703,938.255371 
z"/>
<path fill="#FCFCFD" opacity="1.000000" stroke="none" 
	d="
M996.529419,651.303894 
	C993.622253,662.830872 985.395386,668.975647 974.286011,668.244873 
	C964.334656,667.590271 956.621155,660.020813 955.360840,649.673157 
	C954.189514,640.055664 960.252930,630.643799 969.564575,627.625427 
	C984.505676,622.782166 998.002441,634.385803 996.529419,651.303894 
z"/>
<path fill="#FCFDFD" opacity="1.000000" stroke="none" 
	d="
M1171.320557,660.232727 
	C1164.798950,667.909180 1156.823242,670.088440 1147.779053,667.200317 
	C1139.835815,664.663818 1135.122559,658.793823 1134.066162,650.494507 
	C1132.941162,641.656921 1136.056519,634.490234 1143.728271,629.648499 
	C1151.859131,624.516907 1162.866455,626.008423 1169.754639,633.045166 
	C1176.891479,640.335876 1177.569946,650.461487 1171.320557,660.232727 
z"/>
<path fill="#FCFCFD" opacity="1.000000" stroke="none" 
	d="
M1298.446533,970.236206 
	C1293.817871,977.981506 1287.303345,981.651917 1278.695435,980.544189 
	C1270.526611,979.492859 1265.089966,974.684814 1262.820068,966.734070 
	C1260.553589,958.795105 1262.738159,951.963257 1268.863159,946.491272 
	C1275.134033,940.888794 1284.910767,940.424194 1291.969727,945.227783 
	C1300.013428,950.701355 1302.468750,959.769226 1298.446533,970.236206 
z"/>
<path fill="#FCFCFD" opacity="1.000000" stroke="none" 
	d="
M664.075195,968.550293 
	C660.590393,956.644104 665.698853,946.083984 676.208435,942.851624 
	C686.476196,939.693604 697.295654,945.378357 700.463196,955.595581 
	C703.406067,965.088135 698.695984,975.280884 689.566101,979.177307 
	C679.627136,983.418823 669.830078,979.465576 664.075195,968.550293 
z"/>
<path fill="#022140" opacity="1.000000" stroke="none" 
	d="
M1469.081299,629.000000 
	C1469.081299,618.549011 1469.081299,608.598083 1469.081299,598.387207 
	C1492.741333,598.387207 1515.974365,598.387207 1539.549805,598.387207 
	C1539.549805,626.454651 1539.549805,654.494385 1539.549805,682.894836 
	C1516.256592,682.894836 1492.909180,682.894836 1469.081299,682.894836 
	C1469.081299,665.042419 1469.081299,647.271179 1469.081299,629.000000 
z"/>
<path fill="#01203F" opacity="1.000000" stroke="none" 
	d="
M1598.999756,683.250732 
	C1586.375366,683.250732 1574.250977,683.250732 1561.836670,683.250732 
	C1561.836670,654.808533 1561.836670,626.752380 1561.836670,598.409851 
	C1585.140259,598.409851 1608.366577,598.409851 1631.859375,598.409851 
	C1631.859375,626.587952 1631.859375,654.643616 1631.859375,683.250732 
	C1621.022949,683.250732 1610.261353,683.250732 1598.999756,683.250732 
z"/>
</svg>