<svg xmlns="http://www.w3.org/2000/svg" version="1.1" xmlns:xlink="http://www.w3.org/1999/xlink" width="1500" height="129" viewBox="0 0 1500 129"><svg xml:space="preserve" width="1500" height="129" data-version="2" data-id="lg_ZO73mhDKcOz29QD2gf" viewBox="0 0 653 129" x="0" y="0"><rect width="100%" height="100%" fill="transparent"></rect><g transform="translate(102.615 101.354)"><linearGradient id="a" x1="0" x2="12.333" y1="0" y2="0" gradientUnits="objectBoundingBox"><stop offset="0%" stop-color="#6ee2f5"></stop><stop offset="100%" stop-color="#6454f0"></stop></linearGradient><path fill="url(#a)" d="M195.2 408.72v-7.4h41.45v7.4h-17.02v44.41h-7.41v-44.41z" transform="translate(-215.925 -427.225)"></path></g><g transform="translate(151.21 101.354)"><linearGradient id="b" x1="-.782" x2="8.644" y1="0" y2="0" gradientUnits="objectBoundingBox"><stop offset="0%" stop-color="#6ee2f5"></stop><stop offset="100%" stop-color="#6454f0"></stop></linearGradient><path fill="url(#b)" d="M279.35 401.32h7.41v51.81h-7.41v-22.18h-29.66v22.18h-7.41v-51.81h7.41v22.22h29.66z" transform="translate(-264.52 -427.225)"></path></g><g transform="translate(202.37 101.354)"><linearGradient id="c" x1="-2.131" x2="9.336" y1="0" y2="0" gradientUnits="objectBoundingBox"><stop offset="0%" stop-color="#6ee2f5"></stop><stop offset="100%" stop-color="#6454f0"></stop></linearGradient><path fill="url(#c)" d="M296.8 453.13v-51.81h37.76v7.4h-30.35v14.82h25.9v7.41h-25.9v14.77h30.35v7.41z" transform="translate(-315.68 -427.225)"></path></g><g transform="translate(268.485 101.354)"><linearGradient id="d" x1="-3.367" x2="7.471" y1="0" y2="0" gradientUnits="objectBoundingBox"><stop offset="0%" stop-color="#6ee2f5"></stop><stop offset="100%" stop-color="#6454f0"></stop></linearGradient><path fill="url(#d)" d="M368.73 453.13h-7.4v-51.81h28.36q12.57 0 12.57 12.61v7.37q0 12.61-12.57 12.61h-20.96zm0-44.41v17.78h20.56q2.97 0 4.27-1.3 1.3-1.3 1.3-4.26v-6.65q0-2.96-1.3-4.27-1.3-1.3-4.27-1.3z" transform="translate(-381.795 -427.225)"></path></g><g transform="translate(313.05 101.354)"><linearGradient id="e" x1="-5.286" x2="8.043" y1="0" y2="0" gradientUnits="objectBoundingBox"><stop offset="0%" stop-color="#6ee2f5"></stop><stop offset="100%" stop-color="#6454f0"></stop></linearGradient><path fill="url(#e)" d="M409.34 401.32h7.41v44.4h26.63v7.41h-34.04z" transform="translate(-426.36 -427.225)"></path></g><g transform="translate(354.945 101.354)"><linearGradient id="f" x1="-5.135" x2="5.571" y1="0" y2="0" gradientUnits="objectBoundingBox"><stop offset="0%" stop-color="#6ee2f5"></stop><stop offset="100%" stop-color="#6454f0"></stop></linearGradient><path fill="url(#f)" d="M464.55 401.32h7.41l19.98 51.81h-7.41l-4.59-11.92h-23.38l-4.59 11.92h-7.4zm3.72 9.64-8.89 22.84h17.71z" transform="translate(-468.255 -427.225)"></path></g><g transform="translate(407.24 101.354)"><linearGradient id="g" x1="-5.32" x2="3.83" y1="0" y2="0" gradientUnits="objectBoundingBox"><stop offset="0%" stop-color="#6ee2f5"></stop><stop offset="100%" stop-color="#6454f0"></stop></linearGradient><path fill="url(#g)" d="M504.98 412.95v40.18h-7.41v-51.81h7.41l31.14 40.18v-40.18h7.41v51.81h-7.41z" transform="translate(-520.55 -427.225)"></path></g><g transform="translate(480.655 101.354)"><linearGradient id="h" x1="-7.237" x2="2.796" y1="0" y2="0" gradientUnits="objectBoundingBox"><stop offset="0%" stop-color="#6ee2f5"></stop><stop offset="100%" stop-color="#6454f0"></stop></linearGradient><path fill="url(#h)" d="M572.5 445.72v-37q0-1.51.58-2.87.58-1.35 1.59-2.35 1.01-.99 2.37-1.59 1.35-.59 2.87-.59h28.11q1.52 0 2.87.59 1.36.6 2.37 1.59 1.01 1 1.59 2.35.58 1.36.58 2.87v6.69h-7.41v-6.69h-28.11v37h28.11v-6.64h7.41v6.64q0 1.52-.58 2.88-.58 1.35-1.59 2.36-1.01 1.01-2.37 1.59-1.35.58-2.87.58h-28.11q-1.52 0-2.87-.58-1.36-.58-2.37-1.59-1.01-1.01-1.59-2.36-.58-1.36-.58-2.88" transform="translate(-593.965 -427.225)"></path></g><g transform="translate(529.955 101.354)"><linearGradient id="i" x1="-8.739" x2="1.967" y1="0" y2="0" gradientUnits="objectBoundingBox"><stop offset="0%" stop-color="#6ee2f5"></stop><stop offset="100%" stop-color="#6454f0"></stop></linearGradient><path fill="url(#i)" d="M639.56 401.32h7.41l19.98 51.81h-7.41l-4.59-11.92h-23.38l-4.58 11.92h-7.41zm3.72 9.64-8.89 22.84h17.71z" transform="translate(-643.265 -427.225)"></path></g><g transform="translate(578.895 101.354)"><linearGradient id="j" x1="-9.597" x2=".938" y1="0" y2="0" gradientUnits="objectBoundingBox"><stop offset="0%" stop-color="#6ee2f5"></stop><stop offset="100%" stop-color="#6454f0"></stop></linearGradient><path fill="url(#j)" d="M696.28 453.13h-8.16l-19.98-51.81h7.95l16.11 42.63 16.15-42.63h7.92z" transform="translate(-692.205 -427.225)"></path></g><g transform="translate(627.43 101.354)"><linearGradient id="k" x1="-11.453" x2=".014" y1="0" y2="0" gradientUnits="objectBoundingBox"><stop offset="0%" stop-color="#6ee2f5"></stop><stop offset="100%" stop-color="#6454f0"></stop></linearGradient><path fill="url(#k)" d="M721.86 453.13v-51.81h37.76v7.4h-30.35v14.82h25.91v7.41h-25.91v14.77h30.35v7.41z" transform="translate(-740.74 -427.225)"></path></g><path stroke="#1f09ff" stroke-width="5" d="M10.08 72.821h46.51m13.694-19.803V5.13M58.251 59.815 24.825 26.39M61.87 83.33l-33.427 33.426m87.592-92.336L81.733 58.724" opacity=".84" vector-effect="non-scaling-stroke"></path></svg></svg>