<svg version="1.1" id="Layer_1" xmlns="http://www.w3.org/2000/svg" xmlns:xlink="http://www.w3.org/1999/xlink" x="0px" y="0px"
	 width="100%" viewBox="0 0 512 512" enable-background="new 0 0 512 512" xml:space="preserve">
<path fill="#000000" opacity="1.000000" stroke="none" 
	d="
M1.000002,163.000000 
	C1.000000,109.053612 1.000000,55.107220 1.000000,1.000000 
	C93.687500,1.000000 186.375092,1.000000 279.826813,1.288144 
	C280.057495,2.209345 279.650482,3.085912 278.971405,3.438458 
	C270.543732,7.813825 270.420776,24.899307 279.431732,28.696571 
	C284.051575,30.643389 289.317657,31.345577 294.369965,31.913260 
	C303.162354,32.901165 312.170471,32.536835 320.811981,34.186169 
	C341.208771,38.079140 360.827271,44.400799 379.179199,54.529865 
	C394.157532,62.796898 408.005646,72.470657 420.555542,84.057045 
	C435.991791,98.308273 448.283203,115.016090 458.938049,133.418549 
	C462.956146,142.207626 466.921143,150.625916 470.935730,159.441467 
	C473.618469,168.905457 476.251648,177.972168 478.935059,187.474106 
	C480.046112,196.604218 481.106934,205.299088 482.089233,214.451080 
	C482.339996,219.312790 482.826294,223.712341 482.968781,228.122971 
	C483.369659,240.534927 498.528870,244.433151 506.746216,238.728378 
	C508.891174,237.239258 510.918579,235.580704 513.000000,234.000000 
	C513.000000,326.907684 513.000000,419.815338 513.000000,513.000000 
	C459.312744,513.000000 405.625031,513.000000 351.177246,512.675293 
	C355.547668,510.134613 360.836426,508.222015 365.778015,505.643921 
	C378.892426,498.802124 387.971436,487.293396 398.422913,476.906036 
	C400.717651,474.784363 402.767578,472.848206 404.688843,470.791779 
	C410.191833,464.901581 415.642639,458.962646 421.429688,452.901245 
	C427.081787,445.722046 430.093353,437.795258 430.904572,428.544556 
	C429.925232,421.392517 428.874878,414.695587 427.785461,407.648529 
	C422.316040,394.987457 412.202759,387.411133 400.888062,380.581482 
	C400.148682,379.998505 399.526520,379.786560 398.992493,379.439087 
	C389.027191,372.954895 379.072449,366.454559 368.969238,359.639038 
	C357.211029,351.545135 345.634521,343.716187 333.977417,336.009155 
	C321.844360,327.987457 308.586487,326.781372 295.053680,331.056305 
	C279.789734,335.878113 269.972443,347.899689 259.970673,359.472046 
	C259.878113,359.579163 259.910065,359.793884 259.577667,360.088867 
	C258.337402,361.150024 257.253723,361.973694 256.497253,363.031372 
	C254.165009,366.292206 251.336685,367.571625 247.398026,366.023499 
	C243.678589,364.561523 239.878540,363.304688 235.965912,361.636780 
	C226.584351,354.862122 217.350784,348.408234 207.962616,341.644043 
	C206.399109,340.250580 204.898941,339.266571 203.596741,338.067566 
	C197.074341,332.061920 190.603775,326.000000 183.974976,319.645813 
	C177.237946,311.521515 170.640945,303.709198 163.908997,295.582123 
	C159.221130,288.164398 154.668182,281.061493 150.056412,273.576782 
	C146.993607,267.017731 144.945435,260.958618 152.423035,255.910461 
	C158.168106,250.223801 163.608231,244.665894 169.358307,238.972015 
	C173.150330,233.904861 176.632401,228.973694 180.439117,223.865997 
	C183.787338,216.424423 185.737228,208.966797 184.904205,200.590576 
	C183.247894,189.574036 179.290741,179.983200 172.022034,171.535828 
	C169.010620,166.748642 166.027496,162.317886 162.906891,157.568756 
	C157.553299,149.486252 152.337234,141.722092 146.975098,133.636353 
	C142.591248,127.196060 138.353439,121.077354 134.059448,114.600716 
	C131.496094,110.481346 128.981644,106.724762 126.482979,102.957687 
	C111.992126,81.110725 82.791565,76.475090 63.224434,90.641785 
	C54.234322,97.150673 46.987938,106.068008 38.640495,114.025391 
	C31.847479,120.757774 25.364803,127.357948 18.573822,134.086304 
	C10.724321,141.340805 6.111921,150.182083 3.092431,160.405746 
	C2.345237,161.541168 1.672620,162.270584 1.000002,163.000000 
M392.797455,211.217758 
	C390.486206,202.818100 388.174957,194.418442 385.854156,185.293533 
	C380.917877,177.159927 375.981628,169.026321 370.798828,160.269684 
	C368.305267,157.453049 366.123718,154.257858 363.256561,151.894440 
	C356.136139,146.025101 349.127991,139.844406 341.308868,135.033401 
	C323.721954,124.212418 304.334656,119.669838 283.665619,121.041489 
	C282.447937,121.122292 281.182800,121.760429 280.101257,122.408684 
	C274.109741,125.999809 272.450226,131.438889 272.910553,138.171280 
	C273.371399,144.910782 278.742554,150.478317 285.521942,151.067780 
	C292.137115,151.642960 298.966125,151.945190 305.225220,153.895218 
	C313.707062,156.537735 321.735291,160.636215 330.207001,164.750443 
	C334.447937,168.635727 338.852478,172.360184 342.878357,176.456818 
	C346.140411,179.776230 348.947083,183.543121 351.999817,187.849884 
	C355.055450,195.898117 358.111115,203.946350 361.024963,212.839005 
	C361.349396,215.733627 361.559662,218.646790 362.025574,221.518463 
	C362.694763,225.642960 362.787323,230.090469 364.490417,233.768311 
	C367.691742,240.681793 374.197296,241.545807 381.099365,241.029526 
	C386.750641,240.606827 392.880585,234.670975 392.969543,228.972076 
	C393.057648,223.325653 392.912720,217.675598 392.797455,211.217758 
M422.010162,213.912537 
	C422.006195,216.577774 421.723663,219.279129 422.063263,221.899857 
	C422.579559,225.884415 422.803284,230.148453 424.445709,233.694199 
	C427.660461,240.634384 434.127045,241.548904 441.057465,241.031448 
	C446.736572,240.607407 452.878937,234.688797 452.968597,228.972275 
	C453.052094,223.648346 452.887939,218.320557 452.979401,212.133926 
	C451.607544,203.428894 450.235687,194.723877 448.815582,185.248840 
	C448.553772,184.849701 448.204315,184.482956 448.043060,184.046646 
	C444.699524,175.000656 441.377350,165.946793 437.991119,156.156525 
	C433.367645,148.090668 428.744171,140.024796 423.840088,131.309982 
	C415.749481,122.222305 408.313934,112.418892 399.385010,104.247192 
	C390.358826,95.986549 380.452179,88.306320 369.877747,82.194565 
	C343.820038,67.133858 315.540405,59.621975 285.217010,61.063564 
	C283.385315,61.150642 281.380585,61.813618 279.827026,62.795216 
	C273.650360,66.697884 270.893738,74.792625 273.151978,81.642532 
	C274.557983,85.907249 280.437714,90.623505 284.533447,91.021889 
	C294.110779,91.953453 303.754578,92.531914 313.230286,94.104218 
	C329.072510,96.732918 344.068115,102.370995 357.384277,111.215950 
	C367.510834,117.942253 376.475433,126.417831 386.197449,134.737930 
	C392.427124,142.839966 398.656769,150.942017 404.990234,159.786255 
	C408.977295,168.905197 412.964325,178.024124 416.991730,187.947189 
	C418.716888,196.296295 420.442078,204.645386 422.010162,213.912537 
M295.223022,213.768921 
	C301.157135,217.092148 302.337677,222.896545 302.973663,228.896637 
	C303.506256,233.920944 308.118439,239.702072 312.829559,240.910309 
	C318.898682,242.466827 327.176453,240.318054 329.939728,236.155548 
	C335.112366,228.363647 333.668213,220.153137 330.992889,211.181503 
	C329.776123,208.403259 328.894043,205.412552 327.287506,202.881729 
	C317.868744,188.044052 304.665741,180.145569 286.682892,180.943390 
	C279.601532,181.257568 273.350433,186.323212 272.997620,192.651901 
	C272.360840,204.075104 276.546783,210.063293 285.556213,211.052505 
	C288.727325,211.400696 291.826019,212.407974 295.223022,213.768921 
z"/>
<path fill="#000000" opacity="1.000000" stroke="none" 
	d="
M313.000000,513.000000 
	C209.072678,513.000000 105.145363,513.000000 1.000000,513.000000 
	C1.000000,409.312012 1.000000,305.623840 1.249973,201.177673 
	C1.961924,200.627441 2.423902,200.835236 2.934247,201.470734 
	C4.950081,209.279770 6.917547,216.661102 8.934853,224.432312 
	C10.711548,229.546295 12.438404,234.270370 14.197675,239.350403 
	C16.876514,245.136887 19.522940,250.567429 22.201412,256.349060 
	C25.785711,262.815643 29.337961,268.931152 32.940781,275.407043 
	C37.621334,282.857819 42.251312,289.948242 46.937294,297.395050 
	C52.622650,305.514038 58.252003,313.276642 64.023636,321.355042 
	C70.428642,329.488678 76.691376,337.306519 83.088615,345.429688 
	C88.108986,351.169525 92.994843,356.604004 98.018486,362.348145 
	C105.087074,369.806824 112.017876,376.955811 119.078674,384.410645 
	C128.124023,393.181458 137.039398,401.646454 146.085083,410.417419 
	C150.574905,414.745605 154.841156,418.875763 159.326355,422.752563 
	C162.378143,425.390350 165.736526,427.673401 169.091537,430.424072 
	C179.484177,438.766632 189.743103,446.800140 200.315735,454.984253 
	C212.420578,463.034332 224.211685,470.933838 236.321396,478.988220 
	C241.764877,482.273773 246.714203,485.747925 252.046265,488.473328 
	C271.138824,498.232117 290.382568,507.673889 311.884460,511.131317 
	C312.344574,511.205292 312.632019,512.353088 313.000000,513.000000 
z"/>
<path fill="#000000" opacity="1.000000" stroke="none" 
	d="
M318.000000,1.000004 
	C382.927032,1.000000 447.854034,1.000000 513.000000,1.000000 
	C513.000000,65.687393 513.000000,130.375046 512.647827,195.835480 
	C511.474670,193.403809 510.653687,190.199356 509.906158,186.583282 
	C507.688965,177.099136 505.398315,168.026611 503.055176,158.557953 
	C499.707977,149.761780 496.413239,141.361725 493.058990,132.591339 
	C484.036530,112.029839 472.281769,93.504822 457.490692,77.214302 
	C440.876526,58.915867 422.307037,42.897121 400.481720,30.628983 
	C375.226776,16.433031 348.719177,6.612026 319.960510,2.924872 
	C319.236633,2.832064 318.650421,1.665689 318.000000,1.000004 
z"/>
<path fill="#EAF6FF" opacity="1.000000" stroke="none" 
	d="
M317.531342,1.000004 
	C318.650421,1.665689 319.236633,2.832064 319.960510,2.924872 
	C348.719177,6.612026 375.226776,16.433031 400.481720,30.628983 
	C422.307037,42.897121 440.876526,58.915867 457.490692,77.214302 
	C472.281769,93.504822 484.036530,112.029839 492.628815,132.591980 
	C484.208435,132.641983 476.160706,132.193878 468.107880,132.064835 
	C465.039612,132.015671 461.959625,132.698517 458.884979,133.047745 
	C448.283203,115.016090 435.991791,98.308273 420.555542,84.057045 
	C408.005646,72.470657 394.157532,62.796898 379.179199,54.529865 
	C360.827271,44.400799 341.208771,38.079140 320.811981,34.186169 
	C312.170471,32.536835 303.162354,32.901165 294.369965,31.913260 
	C289.317657,31.345577 284.051575,30.643389 279.431732,28.696571 
	C270.420776,24.899307 270.543732,7.813825 278.971405,3.438458 
	C279.650482,3.085912 280.057495,2.209345 280.295471,1.288144 
	C292.354218,1.000000 304.708466,1.000000 317.531342,1.000004 
z"/>
<path fill="#15A7FF" opacity="1.000000" stroke="none" 
	d="
M2.885880,201.043030 
	C2.423902,200.835236 1.961924,200.627441 1.249973,200.709824 
	C1.000000,191.979111 1.000000,182.958206 1.468657,173.468842 
	C56.593307,173.000443 111.249313,173.012543 165.905243,172.953857 
	C167.953979,172.951660 170.001968,172.261719 172.050308,171.892273 
	C179.290741,179.983200 183.247894,189.574036 184.492249,200.577545 
	C181.222458,200.647568 178.435486,200.044144 175.647873,200.041321 
	C120.844429,199.985779 66.040886,199.984756 11.237440,200.044373 
	C8.453228,200.047394 5.669717,200.695343 2.885880,201.043030 
z"/>
<path fill="#4F5FFF" opacity="1.000000" stroke="none" 
	d="
M313.468658,513.000000 
	C312.632019,512.353088 312.344574,511.205292 311.884460,511.131317 
	C290.382568,507.673889 271.138824,498.232117 252.046265,488.473328 
	C246.714203,485.747925 241.764877,482.273773 236.434967,478.609253 
	C237.760696,477.716980 239.291199,477.046387 240.822205,477.045166 
	C293.254547,477.003052 345.686951,477.024384 398.119324,477.036591 
	C387.971436,487.293396 378.892426,498.802124 365.778015,505.643921 
	C360.836426,508.222015 355.547668,510.134613 350.708588,512.675293 
	C338.645782,513.000000 326.291534,513.000000 313.468658,513.000000 
z"/>
<path fill="#11ACFF" opacity="1.000000" stroke="none" 
	d="
M172.022034,171.535828 
	C170.001968,172.261719 167.953979,172.951660 165.905243,172.953857 
	C111.249313,173.012543 56.593307,173.000443 1.468657,173.000183 
	C1.000000,169.969406 1.000000,166.938812 1.000002,163.454102 
	C1.672620,162.270584 2.345237,161.541168 3.504324,160.419678 
	C5.944092,160.351562 7.897088,160.956345 9.850729,160.958435 
	C58.632607,161.010742 107.414703,161.041519 156.196014,160.867386 
	C158.482330,160.859238 160.761749,158.924576 163.044373,157.887146 
	C166.027496,162.317886 169.010620,166.748642 172.022034,171.535828 
z"/>
<path fill="#C2E5FF" opacity="1.000000" stroke="none" 
	d="
M509.832703,186.994904 
	C510.653687,190.199356 511.474670,193.403809 512.647827,196.304138 
	C513.000000,201.688034 513.000000,207.376083 512.531372,213.531799 
	C502.097717,213.997650 492.132751,213.995819 482.167786,213.993973 
	C481.106934,205.299088 480.046112,196.604218 479.411011,187.462921 
	C489.835419,187.009293 499.834045,187.002090 509.832703,186.994904 
z"/>
<path fill="#B4E0FF" opacity="1.000000" stroke="none" 
	d="
M482.089233,214.451080 
	C492.132751,213.995819 502.097717,213.997650 512.531372,213.999741 
	C513.000000,220.354401 513.000000,226.708786 513.000000,233.531586 
	C510.918579,235.580704 508.891174,237.239258 506.746216,238.728378 
	C498.528870,244.433151 483.369659,240.534927 482.968781,228.122971 
	C482.826294,223.712341 482.339996,219.312790 482.089233,214.451080 
z"/>
<path fill="#3E75FF" opacity="1.000000" stroke="none" 
	d="
M145.954773,410.111450 
	C137.039398,401.646454 128.124023,393.181458 119.317520,384.098267 
	C121.975922,382.986694 124.525108,382.064209 127.075066,382.062073 
	C216.352127,381.987732 305.629272,382.007385 394.906372,381.953583 
	C396.953217,381.952332 398.999664,381.259613 401.046295,380.889465 
	C412.202759,387.411133 422.316040,394.987457 427.362610,407.649200 
	C423.028656,408.333344 419.078674,408.955109 415.128296,408.957611 
	C327.447784,409.013000 239.767242,408.992462 152.086731,409.046478 
	C150.042526,409.047729 147.998749,409.740997 145.954773,410.111450 
z"/>
<path fill="#4769FF" opacity="1.000000" stroke="none" 
	d="
M200.002014,454.833649 
	C189.743103,446.800140 179.484177,438.766632 169.190369,430.023010 
	C170.973587,428.875275 172.791412,428.056213 174.609848,428.054840 
	C257.566864,427.991669 340.523926,427.991516 423.480957,428.041992 
	C425.932037,428.043488 428.382690,428.666443 430.833557,428.999664 
	C430.093353,437.795258 427.081787,445.722046 420.953644,452.888855 
	C411.010803,453.012054 401.859711,453.001038 392.708618,453.000793 
	C330.314606,452.999268 267.920563,452.984314 205.526672,453.076965 
	C203.684250,453.079681 201.843536,454.222443 200.002014,454.833649 
z"/>
<path fill="#397BFF" opacity="1.000000" stroke="none" 
	d="
M400.888062,380.581482 
	C398.999664,381.259613 396.953217,381.952332 394.906372,381.953583 
	C305.629272,382.007385 216.352127,381.987732 127.075066,382.062073 
	C124.525108,382.064209 121.975922,382.986694 119.187531,383.792419 
	C112.017876,376.955811 105.087074,369.806824 98.494934,362.336975 
	C144.593704,361.996643 190.353821,361.977142 236.113937,361.957642 
	C239.878540,363.304688 243.678589,364.561523 247.398026,366.023499 
	C251.336685,367.571625 254.165009,366.292206 256.497253,363.031372 
	C257.253723,361.973694 258.337402,361.150024 260.053833,360.101013 
	C296.929321,359.974335 333.022400,359.965973 369.115479,359.957611 
	C379.072449,366.454559 389.027191,372.954895 398.992493,379.439087 
	C399.526520,379.786560 400.148682,379.998505 400.888062,380.581482 
z"/>
<path fill="#436EFF" opacity="1.000000" stroke="none" 
	d="
M430.904572,428.544556 
	C428.382690,428.666443 425.932037,428.043488 423.480957,428.041992 
	C340.523926,427.991516 257.566864,427.991669 174.609848,428.054840 
	C172.791412,428.056213 170.973587,428.875275 169.056641,429.713959 
	C165.736526,427.673401 162.378143,425.390350 159.326355,422.752563 
	C154.841156,418.875763 150.574905,414.745605 146.085068,410.417419 
	C147.998749,409.740997 150.042526,409.047729 152.086731,409.046478 
	C239.767242,408.992462 327.447784,409.013000 415.128296,408.957611 
	C419.078674,408.955109 423.028656,408.333344 427.401672,407.999329 
	C428.874878,414.695587 429.925232,421.392517 430.904572,428.544556 
z"/>
<path fill="#4C63FF" opacity="1.000000" stroke="none" 
	d="
M200.315735,454.984253 
	C201.843536,454.222443 203.684250,453.079681 205.526672,453.076965 
	C267.920563,452.984314 330.314606,452.999268 392.708618,453.000793 
	C401.859711,453.001038 411.010803,453.012054 420.637939,453.030457 
	C415.642639,458.962646 410.191833,464.901581 404.688843,470.791779 
	C402.767578,472.848206 400.717651,474.784363 398.422913,476.906036 
	C345.686951,477.024384 293.254547,477.003052 240.822205,477.045166 
	C239.291199,477.046387 237.760696,477.716980 236.116394,478.454407 
	C224.211685,470.933838 212.420578,463.034332 200.315735,454.984253 
z"/>
<path fill="#EAF6FF" opacity="1.000000" stroke="none" 
	d="
M385.957031,134.115112 
	C376.475433,126.417831 367.510834,117.942253 357.384277,111.215950 
	C344.068115,102.370995 329.072510,96.732918 313.230286,94.104218 
	C303.754578,92.531914 294.110779,91.953453 284.533447,91.021889 
	C280.437714,90.623505 274.557983,85.907249 273.151978,81.642532 
	C270.893738,74.792625 273.650360,66.697884 279.827026,62.795216 
	C281.380585,61.813618 283.385315,61.150642 285.217010,61.063564 
	C315.540405,59.621975 343.820038,67.133858 369.877747,82.194565 
	C380.452179,88.306320 390.358826,95.986549 399.385010,104.247192 
	C408.313934,112.418892 415.749481,122.222305 423.558228,131.696640 
	C421.165070,132.388855 419.056610,132.933441 416.942078,132.958099 
	C408.319366,133.058594 399.694031,132.940643 391.071564,133.050476 
	C389.362488,133.072250 387.661652,133.743408 385.957031,134.115112 
z"/>
<path fill="#1AA0FF" opacity="1.000000" stroke="none" 
	d="
M2.934248,201.470734 
	C5.669717,200.695343 8.453228,200.047394 11.237440,200.044373 
	C66.040886,199.984756 120.844429,199.985779 175.647873,200.041321 
	C178.435486,200.044144 181.222458,200.647568 184.421692,200.984375 
	C185.737228,208.966797 183.787338,216.424423 180.017151,223.803040 
	C176.820419,223.611069 174.370575,223.041550 171.920135,223.038971 
	C122.520554,222.986908 73.120842,222.970520 23.721312,223.045547 
	C18.775387,223.053055 13.830422,223.694946 8.885012,224.042419 
	C6.917547,216.661102 4.950081,209.279770 2.934248,201.470734 
z"/>
<path fill="#0EAFFF" opacity="1.000000" stroke="none" 
	d="
M162.906876,157.568771 
	C160.761749,158.924576 158.482330,160.859238 156.196014,160.867386 
	C107.414703,161.041519 58.632607,161.010742 9.850729,160.958435 
	C7.897088,160.956345 5.944092,160.351562 3.578901,160.013672 
	C6.111921,150.182083 10.724321,141.340805 19.050072,134.098663 
	C62.263477,133.974518 104.692322,133.966232 147.121170,133.957932 
	C152.337234,141.722092 157.553299,149.486252 162.906876,157.568771 
z"/>
<path fill="#3184FF" opacity="1.000000" stroke="none" 
	d="
M82.954102,345.124329 
	C76.691376,337.306519 70.428642,329.488678 64.446053,321.293213 
	C67.171570,320.610382 69.616463,320.043732 72.062416,320.039124 
	C109.413200,319.968811 146.764114,319.971893 184.115005,319.957825 
	C190.603775,326.000000 197.074341,332.061920 203.596741,338.067566 
	C204.898941,339.266571 206.399109,340.250580 207.570740,341.812012 
	C205.208771,342.526886 203.084290,342.967316 200.959335,342.969696 
	C163.661240,343.011627 126.362953,342.966614 89.065208,343.090576 
	C87.025948,343.097351 84.991035,344.416199 82.954102,345.124329 
z"/>
<path fill="#2D89FF" opacity="1.000000" stroke="none" 
	d="
M183.974976,319.645813 
	C146.764114,319.971893 109.413200,319.968811 72.062416,320.039124 
	C69.616463,320.043732 67.171570,320.610382 64.303772,320.977417 
	C58.252003,313.276642 52.622650,305.514038 47.413681,297.383820 
	C84.695526,297.010773 121.557022,297.021515 158.418365,296.953094 
	C160.294205,296.949615 162.168777,296.264618 164.043930,295.896912 
	C170.640945,303.709198 177.237946,311.521515 183.974976,319.645813 
z"/>
<path fill="#288FFF" opacity="1.000000" stroke="none" 
	d="
M163.908997,295.582123 
	C162.168777,296.264618 160.294205,296.949615 158.418365,296.953094 
	C121.557022,297.021515 84.695526,297.010773 47.357674,297.027405 
	C42.251312,289.948242 37.621334,282.857819 33.331795,275.238342 
	C35.790791,274.472839 37.909035,274.033386 40.027939,274.030182 
	C76.723656,273.974426 113.419456,273.972351 150.115234,273.958557 
	C154.668182,281.061493 159.221130,288.164398 163.908997,295.582123 
z"/>
<path fill="#1D9CFF" opacity="1.000000" stroke="none" 
	d="
M8.934853,224.432312 
	C13.830422,223.694946 18.775387,223.053055 23.721312,223.045547 
	C73.120842,222.970520 122.520554,222.986908 171.920135,223.038971 
	C174.370575,223.041550 176.820419,223.611069 179.692505,223.979553 
	C176.632401,228.973694 173.150330,233.904861 169.102570,238.677216 
	C165.453094,238.678925 162.369385,238.977570 159.285507,238.979324 
	C110.912109,239.006927 62.538681,238.996292 14.165261,238.994446 
	C12.438404,234.270370 10.711548,229.546295 8.934853,224.432312 
z"/>
<path fill="#DDF1FF" opacity="1.000000" stroke="none" 
	d="
M329.958099,164.110138 
	C321.735291,160.636215 313.707062,156.537735 305.225220,153.895218 
	C298.966125,151.945190 292.137115,151.642960 285.521942,151.067780 
	C278.742554,150.478317 273.371399,144.910782 272.910553,138.171280 
	C272.450226,131.438889 274.109741,125.999809 280.101257,122.408684 
	C281.182800,121.760429 282.447937,121.122292 283.665619,121.041489 
	C304.334656,119.669838 323.721954,124.212418 341.308868,135.033401 
	C349.127991,139.844406 356.136139,146.025101 363.256561,151.894440 
	C366.123718,154.257858 368.305267,157.453049 370.725586,160.933975 
	C368.826935,162.064896 367.006531,162.910980 365.175293,162.935089 
	C355.130188,163.067368 345.081940,162.946915 335.036102,163.048111 
	C333.340057,163.065186 331.650604,163.739487 329.958099,164.110138 
z"/>
<path fill="#367EFF" opacity="1.000000" stroke="none" 
	d="
M83.088608,345.429688 
	C84.991035,344.416199 87.025948,343.097351 89.065208,343.090576 
	C126.362953,342.966614 163.661240,343.011627 200.959335,342.969696 
	C203.084290,342.967316 205.208771,342.526886 207.725342,342.122314 
	C217.350784,348.408234 226.584351,354.862122 235.965912,361.636810 
	C190.353821,361.977142 144.593704,361.996643 98.357147,362.027344 
	C92.994843,356.604004 88.108986,351.169525 83.088608,345.429688 
z"/>
<path fill="#2494FF" opacity="1.000000" stroke="none" 
	d="
M150.056412,273.576782 
	C113.419456,273.972351 76.723656,273.974426 40.027939,274.030182 
	C37.909035,274.033386 35.790791,274.472839 33.281227,274.877930 
	C29.337961,268.931152 25.785711,262.815643 22.613155,256.335754 
	C25.779488,255.647583 28.565664,255.046539 31.352835,255.041885 
	C68.824318,254.979370 106.295982,254.977966 143.767456,255.044815 
	C146.551575,255.049774 149.334564,255.692795 152.118073,256.039215 
	C144.945435,260.958618 146.993607,267.017731 150.056412,273.576782 
z"/>
<path fill="#2098FF" opacity="1.000000" stroke="none" 
	d="
M152.423035,255.910461 
	C149.334564,255.692795 146.551575,255.049774 143.767456,255.044815 
	C106.295982,254.977966 68.824318,254.979370 31.352835,255.041885 
	C28.565664,255.046539 25.779488,255.647583 22.581108,255.984680 
	C19.522940,250.567429 16.876514,245.136887 14.197676,239.350403 
	C62.538681,238.996292 110.912109,239.006927 159.285507,238.979324 
	C162.369385,238.977570 165.453094,238.678925 168.792618,238.813202 
	C163.608231,244.665894 158.168106,250.223801 152.423035,255.910461 
z"/>
<path fill="#367EFF" opacity="1.000000" stroke="none" 
	d="
M368.969238,359.639038 
	C333.022400,359.965973 296.929321,359.974335 260.360077,359.970520 
	C259.910065,359.793884 259.878113,359.579163 259.970673,359.472046 
	C269.972443,347.899689 279.789734,335.878113 295.053680,331.056305 
	C308.586487,326.781372 321.844360,327.987457 333.977417,336.009155 
	C345.634521,343.716187 357.211029,351.545135 368.969238,359.639038 
z"/>
<path fill="#09B5FF" opacity="1.000000" stroke="none" 
	d="
M146.975098,133.636353 
	C104.692322,133.966232 62.263477,133.974518 19.358379,133.970474 
	C25.364803,127.357948 31.847479,120.757774 38.931572,114.333038 
	C40.832226,114.672295 42.131401,114.978462 43.430706,114.979027 
	C73.659012,114.992279 103.887329,114.972412 134.115646,114.958656 
	C138.353439,121.077354 142.591248,127.196060 146.975098,133.636353 
z"/>
<path fill="#04BBFF" opacity="1.000000" stroke="none" 
	d="
M134.059448,114.600716 
	C103.887329,114.972412 73.659012,114.992279 43.430706,114.979027 
	C42.131401,114.978462 40.832226,114.672295 39.241913,114.200836 
	C46.987938,106.068008 54.234322,97.150673 63.224434,90.641785 
	C82.791565,76.475090 111.992126,81.110725 126.482979,102.957687 
	C128.981644,106.724762 131.496094,110.481346 134.059448,114.600716 
z"/>
<path fill="#C2E5FF" opacity="1.000000" stroke="none" 
	d="
M294.957794,213.114319 
	C291.826019,212.407974 288.727325,211.400696 285.556213,211.052505 
	C276.546783,210.063293 272.360840,204.075104 272.997620,192.651901 
	C273.350433,186.323212 279.601532,181.257568 286.682892,180.943390 
	C304.665741,180.145569 317.868744,188.044052 327.287506,202.881729 
	C328.894043,205.412552 329.776123,208.403259 330.564423,211.579895 
	C320.100067,211.985550 310.063599,211.941589 300.028809,212.049866 
	C298.334839,212.068146 296.647949,212.742874 294.957794,213.114319 
z"/>
<path fill="#DDF1FF" opacity="1.000000" stroke="none" 
	d="
M386.077240,134.426514 
	C387.661652,133.743408 389.362488,133.072250 391.071564,133.050476 
	C399.694031,132.940643 408.319366,133.058594 416.942078,132.958099 
	C419.056610,132.933441 421.165070,132.388855 423.698517,132.021118 
	C428.744171,140.024796 433.367645,148.090668 437.770508,156.823624 
	C434.979279,157.993805 432.417572,158.869507 429.836426,158.931305 
	C421.523651,159.130356 413.203644,159.029358 404.886444,159.044052 
	C398.656769,150.942017 392.427124,142.839966 386.077240,134.426514 
z"/>
<path fill="#D0EBFF" opacity="1.000000" stroke="none" 
	d="
M404.938354,159.415161 
	C413.203644,159.029358 421.523651,159.130356 429.836426,158.931305 
	C432.417572,158.869507 434.979279,157.993805 437.800415,157.192596 
	C441.377350,165.946793 444.699524,175.000656 448.043060,184.046646 
	C448.204315,184.482956 448.553772,184.849701 448.379822,185.629425 
	C439.314148,186.006683 430.683472,185.942535 422.055023,186.051819 
	C420.349457,186.073425 418.652374,186.762054 416.951385,187.143066 
	C412.964325,178.024124 408.977295,168.905197 404.938354,159.415161 
z"/>
<path fill="#DDF1FF" opacity="1.000000" stroke="none" 
	d="
M458.938049,133.418549 
	C461.959625,132.698517 465.039612,132.015671 468.107880,132.064835 
	C476.160706,132.193878 484.208435,132.641983 492.688354,132.962311 
	C496.413239,141.361725 499.707977,149.761780 502.580292,158.571762 
	C491.733948,159.002548 481.310028,159.023376 470.886108,159.044205 
	C466.921143,150.625916 462.956146,142.207626 458.938049,133.418549 
z"/>
<path fill="#D0EBFF" opacity="1.000000" stroke="none" 
	d="
M330.082550,164.430298 
	C331.650604,163.739487 333.340057,163.065186 335.036102,163.048111 
	C345.081940,162.946915 355.130188,163.067368 365.175293,162.935089 
	C367.006531,162.910980 368.826935,162.064896 370.848877,161.245483 
	C375.981628,169.026321 380.917877,177.159927 385.399048,185.651764 
	C375.653778,186.006668 366.363007,185.947830 357.074036,186.050201 
	C355.364258,186.069046 353.661652,186.741013 351.955750,187.111526 
	C348.947083,183.543121 346.140411,179.776230 342.878357,176.456818 
	C338.852478,172.360184 334.447937,168.635727 330.082550,164.430298 
z"/>
<path fill="#D0EBFF" opacity="1.000000" stroke="none" 
	d="
M470.935730,159.441467 
	C481.310028,159.023376 491.733948,159.002548 502.632751,158.967896 
	C505.398315,168.026611 507.688965,177.099136 509.906158,186.583282 
	C499.834045,187.002090 489.835419,187.009293 479.360779,187.027679 
	C476.251648,177.972168 473.618469,168.905457 470.935730,159.441467 
z"/>
<path fill="#C2E5FF" opacity="1.000000" stroke="none" 
	d="
M416.971558,187.545135 
	C418.652374,186.762054 420.349457,186.073425 422.055023,186.051819 
	C430.683472,185.942535 439.314148,186.006683 448.403931,186.014435 
	C450.235687,194.723877 451.607544,203.428894 452.448120,212.565796 
	C442.000305,212.996613 432.083771,212.995560 422.167267,212.994492 
	C420.442078,204.645386 418.716888,196.296295 416.971558,187.545135 
z"/>
<path fill="#C2E5FF" opacity="1.000000" stroke="none" 
	d="
M351.977783,187.480713 
	C353.661652,186.741013 355.364258,186.069046 357.074036,186.050201 
	C366.363007,185.947830 375.653778,186.006668 385.403809,186.014374 
	C388.174957,194.418442 390.486206,202.818100 392.373474,211.615860 
	C381.688599,212.007507 371.427673,212.001053 361.166748,211.994598 
	C358.111115,203.946350 355.055450,195.898117 351.977783,187.480713 
z"/>
<path fill="#B4E0FF" opacity="1.000000" stroke="none" 
	d="
M295.090393,213.441620 
	C296.647949,212.742874 298.334839,212.068146 300.028809,212.049866 
	C310.063599,211.941589 320.100067,211.985550 330.608093,211.958389 
	C333.668213,220.153137 335.112366,228.363647 329.939728,236.155548 
	C327.176453,240.318054 318.898682,242.466827 312.829559,240.910309 
	C308.118439,239.702072 303.506256,233.920944 302.973663,228.896637 
	C302.337677,222.896545 301.157135,217.092148 295.090393,213.441620 
z"/>
<path fill="#B4E0FF" opacity="1.000000" stroke="none" 
	d="
M361.095856,212.416809 
	C371.427673,212.001053 381.688599,212.007507 392.409760,212.020538 
	C392.912720,217.675598 393.057648,223.325653 392.969543,228.972076 
	C392.880585,234.670975 386.750641,240.606827 381.099365,241.029526 
	C374.197296,241.545807 367.691742,240.681793 364.490417,233.768311 
	C362.787323,230.090469 362.694763,225.642960 362.025574,221.518463 
	C361.559662,218.646790 361.349396,215.733627 361.095856,212.416809 
z"/>
<path fill="#B4E0FF" opacity="1.000000" stroke="none" 
	d="
M422.088715,213.453522 
	C432.083771,212.995560 442.000305,212.996613 452.374817,212.996063 
	C452.887939,218.320557 453.052094,223.648346 452.968597,228.972275 
	C452.878937,234.688797 446.736572,240.607407 441.057465,241.031448 
	C434.127045,241.548904 427.660461,240.634384 424.445709,233.694199 
	C422.803284,230.148453 422.579559,225.884415 422.063263,221.899857 
	C421.723663,219.279129 422.006195,216.577774 422.088715,213.453522 
z"/>
</svg>